<?xml version="1.0" encoding="utf-8"?>
<!-- Generator: Adobe Illustrator 25.1.0, SVG Export Plug-In . SVG Version: 6.00 Build 0)  -->
<svg version="1.1" id="Layer_2" xmlns="http://www.w3.org/2000/svg" xmlns:xlink="http://www.w3.org/1999/xlink" x="0px" y="0px"
	 viewBox="0 0 430.1 430.1" style="enable-background:new 0 0 430.1 430.1;" xml:space="preserve">
<g>
	<path d="M318.1,190.7c-22.1,0-33.1,14.7-36.7,34h72.5c-0.9-10.1-4.6-19.3-11-25.7C335.5,193.5,327.3,190.7,318.1,190.7z"/>
	<path d="M159.2,186.1c6.4-3.7,9.2-10.1,9.2-19.3c0-10.1-3.7-17.4-11.9-21.1c-7.4-2.8-15.6-3.7-26.6-3.7H87.5v49.6h47.8
		C144.5,191.6,152.8,189.8,159.2,186.1z"/>
	<path d="M136.2,229.3H87.5V289h47.8c21.1,0,37.7-2.8,37.7-32.1C172.9,233.9,157.3,229.3,136.2,229.3z"/>
	<path d="M398.8,0.9h-368C14,0.9,0.5,14.5,0.5,31.2v369.6C0.5,417.5,14,431,30.7,431h368c16.7,0,30.2-13.5,30.2-30.2V31.2
		C429,14.5,415.5,0.9,398.8,0.9z M272.2,112.6h90v23h-90V112.6z M194.1,313.8c-6.4,6.4-14.7,9.2-24.8,11.9
		c-10.1,1.8-21.1,2.8-32.1,2.8H36.1v-225h108.4c26.6,0,46.8,8.3,58.8,23.9c6.4,10.1,10.1,21.1,10.1,34c0,13.8-3.7,24.8-11,33.1
		c-2.8,4.6-8.3,9.2-16.5,12.9c24.8,10.1,34.9,30.3,34.9,53.3C220.7,285.3,207.8,303.7,194.1,313.8z M319.9,292.7
		c9.2,0,17.4-2.8,23.9-7.4c3.7-2.7,6.4-6.4,8.3-11h43.1c-0.9,9.2-5.5,19.3-15.6,29.4c-13.8,15.6-34,23-60.6,23
		c-43.2,0-80.8-24.8-80.8-84.5c0-26.6,7.3-48.7,22-64.3c14.7-14.7,34-22,57.9-22c13.8,0,25.7,2.7,37.7,7.3
		c23,11.9,36.7,34.9,40.4,57.9c0.9,7.3,1.9,17.4,1.9,31.2H280.4C280.4,284.4,301.5,292.7,319.9,292.7z"/>
</g>
</svg>
