<?xml version="1.0" encoding="utf-8"?>
<!-- Generator: Adobe Illustrator 25.1.0, SVG Export Plug-In . SVG Version: 6.00 Build 0)  -->
<svg version="1.1" id="Layer_1" xmlns="http://www.w3.org/2000/svg" xmlns:xlink="http://www.w3.org/1999/xlink" x="0px" y="0px"
	 viewBox="0 0 145.3 27.6" style="enable-background:new 0 0 145.3 27.6;" xml:space="preserve">
<style type="text/css">
	.st0{enable-background:new    ;}
	.st1{fill:#F7931E;}
</style>
<g class="st0">
	<path d="M1.2,21.7c0-0.3,0.1-0.4,0.4-0.4h1.8c0.3,0,0.4-0.1,0.4-0.4V5.1c0-0.3-0.1-0.4-0.4-0.4H1.6c-0.3,0-0.4-0.1-0.4-0.4
		c0-0.3,0.1-0.4,0.4-0.4h7.3c2.6,0,4.7,0.9,6.3,2.6c1.6,1.7,2.4,3.9,2.4,6.5c0,2.6-0.8,4.8-2.4,6.5c-1.6,1.7-3.7,2.6-6.3,2.6H1.6
		C1.3,22.1,1.2,22,1.2,21.7z M4.6,20.9c0,0.3,0.1,0.4,0.4,0.4h3.9c2.4,0,4.3-0.8,5.7-2.4c1.5-1.6,2.2-3.6,2.2-6c0-2.4-0.7-4.4-2.2-6
		c-1.5-1.6-3.4-2.4-5.7-2.4H5c-0.3,0-0.4,0.1-0.4,0.4V20.9z"/>
	<path d="M30.2,20.3c0.3-0.2,0.5-0.4,0.6-0.5c0.1-0.1,0.3-0.2,0.4-0.1c0.1,0,0.2,0.1,0.3,0.3c0.1,0.1,0.1,0.3-0.1,0.5
		c-0.6,0.5-1.3,1-2.2,1.4c-0.8,0.4-1.9,0.6-3.1,0.6c-1.8,0-3.3-0.6-4.4-1.9c-1.1-1.3-1.7-2.9-1.7-4.9s0.6-3.6,1.7-4.9
		c1.1-1.3,2.6-1.9,4.4-1.9c1.8,0,3.3,0.6,4.4,1.7c1.1,1.1,1.7,2.5,1.7,4.1v0.4c0,0.5-0.3,0.8-0.8,0.8H21.2c-0.3,0-0.4,0.1-0.4,0.4
		c0.1,1.5,0.6,2.8,1.5,3.8c0.9,1,2.2,1.5,3.8,1.5S29.1,21.2,30.2,20.3z M20.8,14.8c0,0.2,0.1,0.3,0.4,0.3H31c0.3,0,0.4-0.1,0.4-0.4
		c0-1.4-0.5-2.6-1.5-3.6c-1-1-2.3-1.5-3.9-1.5c-1.6,0-2.8,0.5-3.8,1.6S20.8,13.5,20.8,14.8z"/>
	<path d="M34.2,21.3H36c0.3,0,0.4-0.1,0.4-0.4V10.3c0-0.3-0.1-0.4-0.4-0.4h-1.8c-0.3,0-0.4-0.1-0.4-0.4c0-0.3,0.1-0.4,0.4-0.4h2.6
		c0.3,0,0.4,0.1,0.4,0.4V11c0,0.2,0,0.3,0.1,0.4s0.2,0,0.3-0.1c1.4-1.6,2.9-2.4,4.6-2.4s2.9,0.4,3.8,1.3s1.3,2.2,1.3,3.9v6.9
		c0,0.3,0.1,0.4,0.4,0.4h1.8c0.3,0,0.4,0.1,0.4,0.4c0,0.3-0.1,0.4-0.4,0.4h-4.9c-0.3,0-0.4-0.1-0.4-0.4c0-0.3,0.1-0.4,0.4-0.4h1.6
		c0.3,0,0.4-0.1,0.4-0.4v-6.9c0-1.5-0.4-2.6-1.1-3.3s-1.8-1.1-3.1-1.1c-1.3,0-2.6,0.6-3.7,1.8c-0.5,0.5-1,1.1-1.4,1.7v7.8
		c0,0.3,0.1,0.4,0.4,0.4h1.6c0.3,0,0.4,0.1,0.4,0.4c0,0.3-0.1,0.4-0.4,0.4h-4.9c-0.3,0-0.4-0.1-0.4-0.4
		C33.8,21.5,33.9,21.3,34.2,21.3z"/>
	<path d="M50.7,21.7c0-0.3,0.1-0.4,0.4-0.4h1.8c0.3,0,0.4-0.1,0.4-0.4V10.3c0-0.3-0.1-0.4-0.4-0.4h-1.8c-0.3,0-0.4-0.1-0.4-0.4
		c0-0.3,0.1-0.4,0.4-0.4h2.6c0.3,0,0.4,0.1,0.4,0.4v11.4c0,0.3,0.1,0.4,0.4,0.4h1.8c0.3,0,0.4,0.1,0.4,0.4c0,0.3-0.1,0.4-0.4,0.4
		h-5.2C50.8,22.1,50.7,22,50.7,21.7z M52.8,6.7c-0.2-0.2-0.3-0.4-0.3-0.7c0-0.3,0.1-0.5,0.3-0.7C53,5,53.3,4.9,53.6,4.9
		s0.5,0.1,0.7,0.3c0.2,0.2,0.3,0.4,0.3,0.7c0,0.3-0.1,0.5-0.3,0.7C54.1,6.9,53.9,7,53.6,7S53,6.9,52.8,6.7z"/>
	<path d="M64.2,21.6c1.5,0,2.7-0.3,3.5-0.8c0.8-0.5,1.2-1.2,1.2-2.1c0-1.1-0.8-1.9-2.5-2.3c-0.8-0.2-1.7-0.3-2.8-0.5
		c-1.1-0.2-1.8-0.3-2.3-0.4c-1-0.3-1.8-0.7-2.3-1.2c-0.5-0.5-0.8-1.2-0.8-2.1c0-0.9,0.5-1.7,1.4-2.4c0.9-0.7,2.2-1,3.9-1
		s3.1,0.7,4.4,2c0.2,0.2,0.3,0.2,0.3,0.1c0.1-0.1,0.1-0.2,0.1-0.4v-1c0-0.3,0.1-0.4,0.4-0.4s0.4,0.1,0.4,0.4v4.2
		c0,0.3-0.1,0.4-0.4,0.4s-0.4-0.1-0.4-0.4v-1.3c-0.7-1-1.7-1.8-2.9-2.3c-0.6-0.3-1.3-0.4-2.1-0.4c-1.4,0-2.5,0.3-3.3,0.8
		S59,11.6,59,12.3c0,0.8,0.3,1.4,1,1.8c0.7,0.4,1.7,0.7,3.1,1c0.6,0.1,1.2,0.2,1.8,0.3c0.6,0.1,1.2,0.2,1.6,0.3c1,0.2,1.8,0.6,2.3,1
		s0.8,1.2,0.8,2.1s-0.5,1.8-1.4,2.5c-0.9,0.7-2.3,1-4.1,1c-1.4,0-2.7-0.4-4-1.2c-0.3-0.2-0.6-0.5-0.8-0.7c-0.2-0.2-0.3-0.2-0.4-0.1
		c-0.1,0.1-0.1,0.2-0.1,0.4v1c0,0.3-0.1,0.4-0.4,0.4s-0.4-0.1-0.4-0.4v-4.2c0-0.3,0.1-0.4,0.4-0.4s0.4,0.1,0.4,0.4v1.3
		c0.7,1,1.7,1.8,2.9,2.3C62.6,21.5,63.4,21.6,64.2,21.6z"/>
	<path d="M82.2,20.3c0.3-0.2,0.5-0.4,0.6-0.5s0.3-0.2,0.4-0.1c0.1,0,0.2,0.1,0.3,0.3c0.1,0.1,0.1,0.3-0.1,0.5
		c-0.6,0.5-1.3,1-2.2,1.4s-1.9,0.6-3.1,0.6c-1.8,0-3.3-0.6-4.4-1.9c-1.1-1.3-1.7-2.9-1.7-4.9s0.6-3.6,1.7-4.9
		c1.1-1.3,2.6-1.9,4.4-1.9c1.8,0,3.3,0.6,4.4,1.7c1.1,1.1,1.7,2.5,1.7,4.1v0.4c0,0.5-0.3,0.8-0.8,0.8H73.2c-0.3,0-0.4,0.1-0.4,0.4
		c0.1,1.5,0.6,2.8,1.5,3.8c0.9,1,2.2,1.5,3.8,1.5C79.8,21.6,81.1,21.2,82.2,20.3z M72.8,14.8c0,0.2,0.1,0.3,0.4,0.3H83
		c0.3,0,0.4-0.1,0.4-0.4c0-1.4-0.5-2.6-1.5-3.6c-1-1-2.3-1.5-3.9-1.5c-1.6,0-2.8,0.5-3.8,1.6S72.8,13.5,72.8,14.8z"/>
</g>
<g class="st0">
	<path d="M106.3,5.1c0-0.3-0.1-0.4-0.4-0.4h-1.6c-0.3,0-0.4-0.1-0.4-0.4c0-0.3,0.1-0.4,0.4-0.4h4.9c0.3,0,0.4,0.1,0.4,0.4
		c0,0.3-0.1,0.4-0.4,0.4h-1.8c-0.3,0-0.4,0.1-0.4,0.4v15.9c0,0.3,0.1,0.4,0.4,0.4h1.8c0.3,0,0.4,0.1,0.4,0.4c0,0.3-0.1,0.4-0.4,0.4
		h-4.9c-0.3,0-0.4-0.1-0.4-0.4c0-0.3,0.1-0.4,0.4-0.4h1.6c0.3,0,0.4-0.1,0.4-0.4v-7.3c0-0.3-0.1-0.4-0.4-0.4H95.5
		c-0.3,0-0.4,0.1-0.4,0.4v7.3c0,0.3,0.1,0.4,0.4,0.4h1.6c0.3,0,0.4,0.1,0.4,0.4c0,0.3-0.1,0.4-0.4,0.4h-4.9c-0.3,0-0.4-0.1-0.4-0.4
		c0-0.3,0.1-0.4,0.4-0.4H94c0.3,0,0.4-0.1,0.4-0.4V5.1c0-0.3-0.1-0.4-0.4-0.4h-1.8c-0.3,0-0.4-0.1-0.4-0.4c0-0.3,0.1-0.4,0.4-0.4
		h4.9c0.3,0,0.4,0.1,0.4,0.4c0,0.3-0.1,0.4-0.4,0.4h-1.6c-0.3,0-0.4,0.1-0.4,0.4v7c0,0.3,0.1,0.4,0.4,0.4h10.4
		c0.3,0,0.4-0.1,0.4-0.4V5.1z"/>
</g>
<g class="st0">
	<path d="M112.7,20.5c-1.2-1.2-1.8-2.9-1.8-4.9c0-2,0.6-3.6,1.8-4.9s2.7-1.9,4.6-1.9s3.4,0.6,4.6,1.9s1.8,2.9,1.8,4.9
		c0,2-0.6,3.6-1.8,4.9s-2.7,1.9-4.6,1.9S113.8,21.8,112.7,20.5z M117.3,9.6c-1.7,0-3,0.5-4.1,1.6s-1.5,2.5-1.5,4.4
		c0,1.8,0.5,3.3,1.5,4.3s2.4,1.6,4.1,1.6s3.1-0.5,4.1-1.6s1.5-2.5,1.5-4.3c0-1.8-0.5-3.3-1.5-4.4C120.3,10.2,118.9,9.6,117.3,9.6z"
		/>
</g>
<g class="st0">
	<path d="M131.8,3.6c0.7,0,1.4,0.1,1.9,0.4c0.5,0.3,0.9,0.6,1.2,0.8c0.3,0.3,0.4,0.5,0.4,0.6c0,0.1-0.1,0.2-0.2,0.3
		c-0.1,0.1-0.3,0.1-0.6-0.1c-0.2-0.2-0.6-0.5-1.1-0.8s-1-0.4-1.7-0.4c-1.1,0-1.9,0.3-2.5,1c-0.6,0.7-0.9,1.7-0.9,3v0.3
		c0,0.3,0.1,0.4,0.4,0.4h4.2c0.3,0,0.4,0.1,0.4,0.4c0,0.3-0.1,0.4-0.4,0.4h-4.2c-0.3,0-0.4,0.1-0.4,0.4v10.7c0,0.3,0.1,0.4,0.4,0.4
		h2.1c0.3,0,0.4,0.1,0.4,0.4c0,0.3-0.1,0.4-0.4,0.4h-5.5c-0.3,0-0.4-0.1-0.4-0.4c0-0.3,0.1-0.4,0.4-0.4h1.8c0.3,0,0.4-0.1,0.4-0.4
		V10.3c0-0.3-0.1-0.4-0.4-0.4h-1.8c-0.3,0-0.4-0.1-0.4-0.4c0-0.3,0.1-0.4,0.4-0.4h1.8c0.3,0,0.4-0.1,0.4-0.4V8.5
		c0-1.6,0.4-2.8,1.1-3.6C129.4,4.1,130.5,3.6,131.8,3.6z"/>
</g>
<g class="st0">
	<path d="M141.7,3.6c0.7,0,1.4,0.1,1.9,0.4c0.5,0.3,0.9,0.6,1.2,0.8c0.3,0.3,0.4,0.5,0.4,0.6c0,0.1-0.1,0.2-0.2,0.3
		c-0.1,0.1-0.3,0.1-0.6-0.1c-0.2-0.2-0.6-0.5-1.1-0.8c-0.5-0.3-1-0.4-1.7-0.4c-1.1,0-1.9,0.3-2.5,1c-0.6,0.7-0.9,1.7-0.9,3v0.3
		c0,0.3,0.1,0.4,0.4,0.4h4.2c0.3,0,0.4,0.1,0.4,0.4c0,0.3-0.1,0.4-0.4,0.4h-4.2c-0.3,0-0.4,0.1-0.4,0.4v10.7c0,0.3,0.1,0.4,0.4,0.4
		h2.1c0.3,0,0.4,0.1,0.4,0.4c0,0.3-0.1,0.4-0.4,0.4h-5.5c-0.3,0-0.4-0.1-0.4-0.4c0-0.3,0.1-0.4,0.4-0.4h1.8c0.3,0,0.4-0.1,0.4-0.4
		V10.3c0-0.3-0.1-0.4-0.4-0.4h-1.8c-0.3,0-0.4-0.1-0.4-0.4c0-0.3,0.1-0.4,0.4-0.4h1.8c0.3,0,0.4-0.1,0.4-0.4V8.5
		c0-1.6,0.4-2.8,1.1-3.6C139.4,4.1,140.4,3.6,141.7,3.6z"/>
</g>
<rect x="114.4" y="12.6" class="st1" width="6" height="6"/>
</svg>
