<svg viewBox="0 0 116.81 37.23" xmlns="http://www.w3.org/2000/svg"><g transform="translate(-.16 -.19)"><path d="m1.33 32.64s26.23-10.22 56.43-10a186.4 186.4 0 0 1 58.24 9.91" fill="none" stroke="#f7931e" stroke-linecap="round" stroke-miterlimit="10" stroke-width="2"/><g fill="#4d4d4d"><path d="m4.21 29.71s0-.12 0-.27v-.5c0-.67.1-1.4.21-2.17.37-2.64.85-5.49 1.46-8.54.2-.95.78-4.09 1.73-9.44l.11-.65a28.3 28.3 0 0 1 .74-3.31.7.7 0 0 1 .55-.43.62.62 0 0 1 .58.2.82.82 0 0 1 .12.4.92.92 0 0 1 -.09.43 14.85 14.85 0 0 0 -1 3 3.07 3.07 0 0 1 -.18.57 101.58 101.58 0 0 0 -3.15 17.85v.57a8.49 8.49 0 0 0 0 1v.49l.06.28s-.08 0-.14-.12l-.21-.24-.19.06a.67.67 0 0 1 -.19.05c-.08 0-.13 0-.13 0l.07-.08a1.73 1.73 0 0 0 .24-.51 6.37 6.37 0 0 0 .3-2.35 14.53 14.53 0 0 0 -1.61-5.18c-.33-.64-.67-1.27-1-1.9a31.07 31.07 0 0 1 -1.76-3.58l-.11-.34a7.18 7.18 0 0 1 -.44-2 5.32 5.32 0 0 1 .25-2.2c.07-.19.15-.4.25-.63l.17-.36a13.53 13.53 0 0 1 5-4.74l.41-.24a19.61 19.61 0 0 1 7-2.3h1.35.43a5.1 5.1 0 0 1 3.92 2.09 4.79 4.79 0 0 1 .58 1 7.86 7.86 0 0 1 .33.94l.17.56.08.49a8.52 8.52 0 0 1 .12 1 18.08 18.08 0 0 1 -1.6 8l-.24.57a23.45 23.45 0 0 1 -4.9 7.09c-.4.38-.86.81-1.41 1.29a17.65 17.65 0 0 1 -3.39 2.28 5.85 5.85 0 0 1 -2.29.71h-.63l-.3-.05a5.78 5.78 0 0 1 -.57-.12c-1.15-.64-1.75-1.25-1.79-1.83s.37-1.3 1.25-1.93a17 17 0 0 1 2.73-1.62 32.45 32.45 0 0 1 5.9-2.4q4-1.14 7.75-1.87l1-.18 1.89-.35a.35.35 0 0 1 .33.14.44.44 0 0 1 .07.19.34.34 0 0 1 -.33.38c-2.39.3-4.09.54-5.08.73a38.13 38.13 0 0 0 -6.19 1.55 33.89 33.89 0 0 0 -5.09 2.28c-2.17 1.31-3.29 2.15-3.3 2.53v.32c0 .34.39.68 1.1 1a3.42 3.42 0 0 0 .6.18h.73a7.85 7.85 0 0 0 3.6-1.5c.6-.42 1.15-.84 1.67-1.27l.4-.33a17.26 17.26 0 0 0 3.57-4.05 23.22 23.22 0 0 0 2.37-4.59 30.76 30.76 0 0 0 1.16-3.76 11 11 0 0 0 .22-3.07 5.84 5.84 0 0 0 -.16-1.1c0-.15 0-.3-.07-.45l-.18-.48a5 5 0 0 0 -.79-1.63 4.62 4.62 0 0 0 -3.27-1.87l-.39-.06h-1.27a16.49 16.49 0 0 0 -6.68 2.19c-.38.22-.76.46-1.15.7a11.68 11.68 0 0 0 -3.72 4 5.91 5.91 0 0 0 -.34.84 5.43 5.43 0 0 0 -.22 2 7.71 7.71 0 0 0 .46 2 20.63 20.63 0 0 0 1.8 3.85c.49.87.82 1.51 1 1.91a14.52 14.52 0 0 1 .77 1.64 12.32 12.32 0 0 1 .93 3.86v.3a8.09 8.09 0 0 1 -.19 2.06l-.09.3a3 3 0 0 1 -.28.78 1.09 1.09 0 0 1 -.63.23.94.94 0 0 1 -.79-.29z"/><path d="m22.79 20.16a1.66 1.66 0 0 1 -.35-.9 1.7 1.7 0 0 1 0-.54 5.54 5.54 0 0 1 .56-1.41l.14-.2a3.51 3.51 0 0 1 2.33-1.79 1.33 1.33 0 0 1 1 .43 1.09 1.09 0 0 1 .2.56 1.35 1.35 0 0 1 -.08.51 3.93 3.93 0 0 1 -.68 1.1 3.23 3.23 0 0 1 -2.1 1.1c-.32 0-.51-.13-.57-.28a1.49 1.49 0 0 1 -.1-.35.86.86 0 0 1 .1-.44.68.68 0 0 1 .57-.3h.19a2.15 2.15 0 0 0 .6-.13 1.13 1.13 0 0 0 .38-.2.68.68 0 0 0 .2-.22.8.8 0 0 0 .08-.21.41.41 0 0 0 0-.15v-.06a1.72 1.72 0 0 0 -.54.34 3.14 3.14 0 0 0 -.55.64l-.21.29a2.47 2.47 0 0 0 -.32 1.32c0 .33.23.52.62.57h.38.11.29a6.38 6.38 0 0 0 2.4-.7 17.12 17.12 0 0 0 3-2 .7.7 0 0 1 .22-.07c.16 0 .25.08.26.26a.32.32 0 0 1 -.17.29c-.36.28-.77.58-1.24.9a15.64 15.64 0 0 1 -3.86 1.92 4.37 4.37 0 0 1 -1 .18 2.33 2.33 0 0 1 -1.86-.46z"/><path d="m29.85 21.9a.54.54 0 0 1 -.27-.39c0-.06.14-.64.44-1.73a29.93 29.93 0 0 0 1-6.31c0-.45.15-.68.53-.71a.77.77 0 0 1 .35.08.73.73 0 0 1 .35.65c-.17.87-.37 1.74-.57 2.61s-.34 1.5-.49 2.25l-.05.19a14.44 14.44 0 0 0 -.38 3.05.35.35 0 0 0 0 .12.2.2 0 0 1 0 .09 4.25 4.25 0 0 1 -.63-.46l-.31-.26-.11.08a.85.85 0 0 1 .15-.3c.25-.52.57-1.24 1-2.18.22-.53.44-1.06.67-1.58a13.19 13.19 0 0 1 1.58-2.88 1.63 1.63 0 0 1 .44-.41 1.9 1.9 0 0 1 .37-.08c.53 0 .88.31 1.08 1 .06.27.12.51.16.72l.06.28a7 7 0 0 0 .78 2.13 1.47 1.47 0 0 0 1.34.77 3.39 3.39 0 0 0 1.84-.88 7.64 7.64 0 0 0 1-.87.68.68 0 0 1 .37-.21c.14 0 .22 0 .22.09v.1a.58.58 0 0 1 -.19.39c-.36.3-.6.5-.72.62l-.18.14-.47.38a6.87 6.87 0 0 1 -.91.59 2.06 2.06 0 0 1 -.83.24 2.42 2.42 0 0 1 -2-.8 5.56 5.56 0 0 1 -.73-1.42c-.18-.49-.33-1-.46-1.46a2 2 0 0 0 -.25-.71c-.06 0-.1-.06-.12 0s-.22.11-.37.31a15.93 15.93 0 0 0 -1.26 2.22 16.12 16.12 0 0 0 -1.28 3.72l-.13.57a.51.51 0 0 1 -.44.4 1 1 0 0 1 -.58-.15z"/><path d="m41.12 20.31a1.27 1.27 0 0 1 -.89-.78 4.05 4.05 0 0 1 -.18-.94 3 3 0 0 1 0-.52v-.24c.06-.56.15-1.1.25-1.62a14 14 0 0 0 .24-1.56c.08-.28.19-.44.32-.47h.25a.6.6 0 0 1 .44.14.52.52 0 0 1 .21.4.9.9 0 0 1 0 .23 8.92 8.92 0 0 0 -.86 3.1v.2.21a1.77 1.77 0 0 0 0 .22v.43a.62.62 0 0 0 .71.57 3.5 3.5 0 0 0 .72-.14h.1a12.46 12.46 0 0 0 3.68-2.32c.17-.14.34-.3.49-.45a1 1 0 0 1 .5-.34.22.22 0 0 1 .14 0 .36.36 0 0 1 .24.3.39.39 0 0 1 -.14.31l-.28.25a18.41 18.41 0 0 1 -4.31 2.84l-.31.09a2.9 2.9 0 0 1 -.77.2 2.18 2.18 0 0 1 -.55-.11zm.27-7.81a.61.61 0 0 1 -.23-.46.86.86 0 0 1 0-.27 1 1 0 0 0 0-.17q.15-.47.36-.51h.26a.66.66 0 0 1 .54.18.56.56 0 0 1 .22.44.78.78 0 0 1 0 .35v.08c-.09.3-.21.47-.35.51l-.27.05a.7.7 0 0 1 -.53-.2z"/><path d="m47.62 23.25a1.5 1.5 0 0 1 -.76-1.18 2 2 0 0 1 .39-1.15 7.35 7.35 0 0 1 2.14-2.08c.54-.36 1.1-.7 1.67-1l.3-.17c1.29-.66 2.6-1.26 3.94-1.81h.17a.29.29 0 0 1 .22.08.26.26 0 0 1 .1.19.38.38 0 0 1 -.28.39l-.35.14a22.62 22.62 0 0 0 -4.72 2.34l-.76.49a6.32 6.32 0 0 0 -1.54 1.22 2.46 2.46 0 0 0 -.56 1.05 2.2 2.2 0 0 0 0 .3.88.88 0 0 0 .28.56 1.49 1.49 0 0 0 .88.24 1.33 1.33 0 0 0 .5-.13 2.37 2.37 0 0 0 1.07-1 1.1 1.1 0 0 0 .1-.56 1.68 1.68 0 0 0 -.28-.79 9.4 9.4 0 0 0 -.93-1.31 1.9 1.9 0 0 1 -.24-.28l-.4-.42a2 2 0 0 1 -.37-.42s0 .06.08.1l.08.1-.2-.15-.25-.26c-.1-.12-.24-.26-.4-.42l-.35-.32a7.45 7.45 0 0 1 -1.5-1.91 3.2 3.2 0 0 1 -.29-1.14 2.94 2.94 0 0 1 0-.42 2 2 0 0 1 .78-1.38 3.89 3.89 0 0 1 1.48-.64h.22l.58-.07a8.65 8.65 0 0 1 2.91.31l.16.06a1.87 1.87 0 0 1 .32.15 1.75 1.75 0 0 1 .84 1.41v.13c0 .32-.15.51-.31.57a2.24 2.24 0 0 1 -.35.09.75.75 0 0 1 -.43-.11.65.65 0 0 1 -.3-.55v-.2a.39.39 0 0 0 -.13-.3.94.94 0 0 0 -.28-.16 6.17 6.17 0 0 0 -2.5-.31c-1 .14-1.63.47-1.87 1a1.61 1.61 0 0 0 0 .58.89.89 0 0 0 0 .15s0 .11 0 .16a1.6 1.6 0 0 0 .11.33 10.74 10.74 0 0 0 2.36 3l.53.54.24.26a4.32 4.32 0 0 1 1.48 2.45 2.27 2.27 0 0 1 -.08.76 2.62 2.62 0 0 1 -.93 1.14 2.69 2.69 0 0 1 -1 .44l-.58.09a2 2 0 0 1 -.99-.18z"/><path d="m55.24 18a1.61 1.61 0 0 1 -.36-.89 1.75 1.75 0 0 1 .06-.55 5.19 5.19 0 0 1 .56-1.41l.13-.2a3.55 3.55 0 0 1 2.37-1.78 1.37 1.37 0 0 1 1 .43 1.1 1.1 0 0 1 .11 1.08 3.85 3.85 0 0 1 -.67 1.09 3.29 3.29 0 0 1 -2.1 1.11c-.32 0-.52-.14-.57-.29a1.08 1.08 0 0 1 -.1-.34.79.79 0 0 1 .1-.45.66.66 0 0 1 .57-.3h.11a2.7 2.7 0 0 0 .6-.13 1.39 1.39 0 0 0 .37-.2.88.88 0 0 0 .21-.23.6.6 0 0 0 .08-.21.86.86 0 0 0 0-.15v-.06a1.93 1.93 0 0 0 -.54.34 3.1 3.1 0 0 0 -.55.64l-.21.29a2.49 2.49 0 0 0 -.32 1.32c0 .33.23.52.62.57h.38.1.29a6.2 6.2 0 0 0 2.41-.7 16.5 16.5 0 0 0 3-1.95.37.37 0 0 1 .21-.07c.17 0 .26.07.27.26a.31.31 0 0 1 -.17.28c-.36.28-.78.58-1.24.9a15.64 15.64 0 0 1 -3.86 1.92 4.49 4.49 0 0 1 -1 .19 2.33 2.33 0 0 1 -1.86-.51z"/><path d="m68.14 13.08a1.17 1.17 0 0 1 -.15-.64 1.4 1.4 0 0 0 0-.35.47.47 0 0 0 .1-.1 1.25 1.25 0 0 1 .41-.28l.39-.15a7.33 7.33 0 0 0 .69-.34.84.84 0 0 1 .4-.08.58.58 0 0 1 .36.15c.18.17.27.31.26.44v.2c0 .24-.18.44-.51.58l-.3.1a4 4 0 0 0 -.68.26l-.11.05a.29.29 0 0 1 .1-.08c0-.39 0-.66 0-.82s-.1-.02-.1-.02h.14.15a.41.41 0 0 0 .16 0h1.59 1.28q8.39-.56 15.24-.59h1.55c.36 0 .54.22.52.53s-.2.47-.55.48l-1.63-.11a85.92 85.92 0 0 0 -15.06.58l-1.5.2a6 6 0 0 0 -.63.09l-.84.09a4.9 4.9 0 0 1 -.66 0 1 1 0 0 1 -.62-.19zm1.86 13.75a.58.58 0 0 1 -.21-.55v-.05c.45-1.95.92-3.89 1.42-5.84q2-7.79 3.25-12.31c.59-2.19 1.14-4.4 1.65-6.6v-.09a.38.38 0 0 0 0-.1.61.61 0 0 1 0-.14c0-.07 0-.11.08-.11s.06.05.06.14 0 .17.07.18h.25a1.71 1.71 0 0 0 .39 0h.38s-.12.09-.24.25a2 2 0 0 0 -.21.31c-.49.65-1 1.29-1.56 1.9a.8.8 0 0 1 -.53.2.58.58 0 0 1 -.19 0 .65.65 0 0 1 -.47-.68.82.82 0 0 1 .28-.53 6.1 6.1 0 0 0 1.58-1.9c.24-.5.51-.74.8-.72a1.22 1.22 0 0 1 .62.28.49.49 0 0 1 .16.4 2.63 2.63 0 0 1 -.25.82l-.05.11a107.43 107.43 0 0 0 -5.38 18.76q-.61 2.91-1 5.87c-.07.27-.17.42-.3.46a1.33 1.33 0 0 1 -.31.06.63.63 0 0 1 -.29-.12zm12.1-1.83a.65.65 0 0 1 -.26-.63q.19-.8.51-2.58.9-4.39 2.7-11c.51-1.86 1-3.72 1.46-5.58l.11-.42c.29-1.15.48-2.06.59-2.72a.28.28 0 0 0 0-.09.2.2 0 0 1 0-.07 0 0 0 0 1 0 0s.09.09.12.22l.21.09a1.21 1.21 0 0 0 .3.09.27.27 0 0 0 .2-.08l-.08.06-.12.09-.1.07s-.05 0-.06 0 0 0 0 0a.8.8 0 0 1 -.51.17.62.62 0 0 1 -.24-.08c-.22-.12-.34-.25-.36-.4a2.52 2.52 0 0 1 0-.29.73.73 0 0 1 .33-.52 1.53 1.53 0 0 0 .33-.2 3 3 0 0 1 .19-.13.55.55 0 0 1 .29-.08 1.15 1.15 0 0 1 .49.2l.22.11.07.21a1.37 1.37 0 0 1 .09.4 7 7 0 0 1 -.52 1.69c-.26.78-.49 1.43-.69 2-1 2.92-1.83 5.89-2.56 8.89a72.11 72.11 0 0 0 -1.51 7.58c-.08.57-.13 1.13-.16 1.69v.86s-.3.61-.66.59a.7.7 0 0 1 -.38-.14z"/><path d="m89.27 21.4c-.38-.16-.59-.37-.64-.65a3 3 0 0 1 0-.7 6.11 6.11 0 0 1 .9-2.4l.38-.71a.72.72 0 0 1 .59-.32.61.61 0 0 1 .55.28.74.74 0 0 1 .12.4.86.86 0 0 1 -.15.43 5 5 0 0 0 -1.08 1.81c0 .07 0 .17-.08.3v.19s0 .06 0 .06h.06a2.37 2.37 0 0 0 1-1.61 1.09 1.09 0 0 0 0-.18.71.71 0 0 1 0-.14.64.64 0 0 0 -.49-.52h-.12l-.07.06h.08c.17 0 .28-.19.34-.58 0-.13.07-.25.11-.38h.06a9 9 0 0 0 2.08.55l.54.08 1.26.1a23.94 23.94 0 0 0 3.17 0c.25 0 .37.13.36.34s-.12.29-.34.3a55.14 55.14 0 0 1 -5.89 0 11 11 0 0 1 -1.84-.24c-.26-.06-.42-.15-.47-.26v-.22a1.12 1.12 0 0 1 .28-.76.72.72 0 0 1 .55-.24h.16a1.94 1.94 0 0 1 1.31 1.27 2 2 0 0 1 .06.72v.36a4.11 4.11 0 0 1 -1.54 2.45 1.37 1.37 0 0 1 -.78.29 1.29 1.29 0 0 1 -.47-.08z"/><path d="m95.11 36.75a1 1 0 0 1 -.4-.43 4 4 0 0 1 -.29-1 9.62 9.62 0 0 1 0-1.86c0-.3 0-.6.08-.9a49 49 0 0 1 .89-4.93 114.32 114.32 0 0 1 3.49-12.41 25.89 25.89 0 0 1 1.66-4 6.7 6.7 0 0 1 .91-1.36 1.28 1.28 0 0 1 1-.4.94.94 0 0 1 .32.08.68.68 0 0 1 .4.5 3.13 3.13 0 0 1 0 .41 4.17 4.17 0 0 1 -.42 1.52v.06a22.59 22.59 0 0 1 -2.86 4.67l-.42.56a14.14 14.14 0 0 1 -1.7 1.86.83.83 0 0 1 -.44.14.57.57 0 0 1 -.25-.08.65.65 0 0 1 -.36-.63.7.7 0 0 1 .28-.55 6.94 6.94 0 0 0 1-.79 11.87 11.87 0 0 0 1.09-1.21 17.69 17.69 0 0 0 2.2-3.39 11.3 11.3 0 0 0 .49-1.07 4.1 4.1 0 0 0 .26-.74s-.09.06-.17.19l-.51.75a29.47 29.47 0 0 0 -1.91 3.67 60.14 60.14 0 0 0 -3.19 10.24c-.18.91-.32 1.58-.4 2a34.08 34.08 0 0 0 -.6 4.71 9.47 9.47 0 0 0 .19 2.78.86.86 0 0 1 .06.23.57.57 0 0 0 .11.22c.08.18.17.27.27.28s0 0 0-.06v-.07l.6-.54a5.19 5.19 0 0 0 .36-.46l.19-.22a1.77 1.77 0 0 1 .19-.33c.13-.21.25-.44.37-.66a16.39 16.39 0 0 0 1.48-6q0-.54 0-1.59a10 10 0 0 0 -1.07-4.61 5.54 5.54 0 0 0 -.58-.85 1.13 1.13 0 0 1 -.1-.13.57.57 0 0 0 -.08-.13 1.11 1.11 0 0 1 -.21-.61.9.9 0 0 1 .1-.32.92.92 0 0 1 .52-.36 2.76 2.76 0 0 1 .65-.07c.21 0 .79-.08 1.74-.19l.74-.08c1.44-.17 2.88-.33 4.33-.48l1.16-.11h.09c.22 0 .33.11.32.28s-.16.34-.45.37a41.49 41.49 0 0 0 -5.43.66l-.37.08c-.54.11-1.08.23-1.61.36a.8.8 0 0 1 -.2.07c-.11 0-.16.05-.16.09a.85.85 0 0 0 .15.4 12.71 12.71 0 0 1 1.11 6.19v.74a21.74 21.74 0 0 1 -1.38 6.64 10.23 10.23 0 0 1 -.73 1.45 3.92 3.92 0 0 1 -1 1.24 1.34 1.34 0 0 1 -.91.32 1.19 1.19 0 0 1 -.6-.14z"/><path d="m103.25 37.21a.9.9 0 0 1 -.39-.44 4.43 4.43 0 0 1 -.3-1 9.81 9.81 0 0 1 0-1.86c0-.3 0-.6.08-.9a45.88 45.88 0 0 1 .89-4.93 113.64 113.64 0 0 1 3.47-12.45 25.63 25.63 0 0 1 1.67-4 6.7 6.7 0 0 1 .91-1.36 1.26 1.26 0 0 1 1-.4.89.89 0 0 1 .32.08c.26.14.39.3.4.5a3.69 3.69 0 0 1 0 .41 4.67 4.67 0 0 1 -.42 1.52v.06a23.3 23.3 0 0 1 -2.88 4.69l-.43.56a14.11 14.11 0 0 1 -1.69 1.86.74.74 0 0 1 -.45.13.48.48 0 0 1 -.24-.07.62.62 0 0 1 -.36-.63.68.68 0 0 1 .32-.49 6.78 6.78 0 0 0 1-.79 10.75 10.75 0 0 0 1.06-1.2 17.72 17.72 0 0 0 2.21-3.39 10.7 10.7 0 0 0 .48-1.07 3 3 0 0 0 .26-.74s-.1.06-.17.19l-.51.75a28.18 28.18 0 0 0 -1.91 3.67 58.4 58.4 0 0 0 -3.19 10.24c-.19.9-.32 1.58-.41 2a34.08 34.08 0 0 0 -.6 4.71 9.14 9.14 0 0 0 .2 2.78l.06.22a.67.67 0 0 0 .1.23c.09.18.18.27.28.28s0 0 0-.06v-.08l.6-.53a3 3 0 0 0 .36-.46l.19-.22a2.59 2.59 0 0 1 .19-.33c.13-.22.26-.44.38-.66a16.58 16.58 0 0 0 1.47-6q0-.54 0-1.59a9.9 9.9 0 0 0 -1.07-4.61 4.55 4.55 0 0 0 -.58-.85l-.09-.13-.08-.13a1.11 1.11 0 0 1 -.21-.61.74.74 0 0 1 .1-.32.85.85 0 0 1 .52-.36 2.67 2.67 0 0 1 .64-.07l1.75-.19.73-.08c1.44-.17 2.89-.33 4.34-.48l1.16-.11h.08c.23 0 .33.11.32.28s-.16.34-.44.37a41.43 41.43 0 0 0 -5.44.66l-.37.08c-.54.11-1.07.23-1.61.36a.45.45 0 0 1 -.19.06c-.11 0-.16.06-.17.1a1.14 1.14 0 0 0 .16.4 12.94 12.94 0 0 1 1.25 6.19v.74a21.74 21.74 0 0 1 -1.38 6.64 10.18 10.18 0 0 1 -.74 1.45 3.67 3.67 0 0 1 -1 1.23 1.26 1.26 0 0 1 -.9.33 1.3 1.3 0 0 1 -.73-.18z"/></g></g></svg>