<svg xmlns="http://www.w3.org/2000/svg" xmlns:xlink="http://www.w3.org/1999/xlink" viewBox="0 0 1090.74 1024.51"><defs><style>.cls-1{fill:url(#linear-gradient);}.cls-2{fill:url(#linear-gradient-2);}.cls-3{fill:#78d329;}.cls-4{fill:url(#linear-gradient-3);}.cls-5{fill:url(#linear-gradient-4);}.cls-6{fill:url(#New_Gradient_Swatch_3);}.cls-7{fill:url(#New_Gradient_Swatch_3-2);}.cls-8{fill:url(#linear-gradient-5);}.cls-9{fill:url(#linear-gradient-6);}.cls-10{fill:url(#New_Gradient_Swatch_3-3);}.cls-11{fill:url(#New_Gradient_Swatch_3-4);}.cls-12{fill:url(#New_Gradient_Swatch_3-5);}.cls-13{fill:url(#New_Gradient_Swatch_3-6);}.cls-14{fill:url(#linear-gradient-7);}.cls-15{fill:url(#linear-gradient-8);}.cls-16{fill:#523216;}.cls-17{fill:#462b13;}.cls-18{fill:#2c1b0c;}.cls-19{fill:#7e4d22;}.cls-20{fill:#6b411d;}.cls-21{fill:#834b1d;}.cls-22{fill:#54361d;}.cls-23{fill:url(#New_Gradient_Swatch_3-7);}.cls-24{fill:url(#New_Gradient_Swatch_3-8);}.cls-25{fill:url(#New_Gradient_Swatch_3-9);}.cls-26{fill:url(#New_Gradient_Swatch_3-10);}.cls-27{fill:url(#New_Gradient_Swatch_2);}.cls-28{fill:url(#New_Gradient_Swatch_3-11);}.cls-29{fill:url(#New_Gradient_Swatch_3-12);}.cls-30{fill:url(#linear-gradient-9);}.cls-31{fill:url(#linear-gradient-10);}.cls-32,.cls-36,.cls-38{fill:#ffc200;}.cls-32,.cls-33,.cls-36,.cls-38{stroke:#ffc200;}.cls-32,.cls-33,.cls-34,.cls-36,.cls-37,.cls-38,.cls-43{stroke-miterlimit:10;}.cls-32,.cls-33{stroke-width:8.47px;}.cls-33{fill:#ffcb00;}.cls-34,.cls-37,.cls-45{fill:none;}.cls-34,.cls-37{stroke:#fffff1;}.cls-34{stroke-width:3.18px;}.cls-35{fill:#fffff1;}.cls-36{stroke-width:4.63px;}.cls-37{stroke-width:1.74px;}.cls-38{stroke-width:6.36px;}.cls-39{fill:#83a5c9;}.cls-40{fill:#5672cc;}.cls-41{fill:#639e2a;}.cls-42{fill:url(#New_Gradient_Swatch_2-2);}.cls-43{fill:#f7adb3;stroke:#fec7c9;stroke-width:1.11px;}.cls-44{fill:#ffc828;}.cls-46{fill:#f2b725;}.cls-47{fill:#f4bb2a;}.cls-48{fill:#fec7c9;}</style><linearGradient id="linear-gradient" x1="601.52" y1="925.15" x2="666.7" y2="925.15" gradientUnits="userSpaceOnUse"><stop offset="0.04" stop-color="#8ed727" stop-opacity="0.9"/><stop offset="0.3" stop-color="#8ad625" stop-opacity="0.9"/><stop offset="0.51" stop-color="#7ed320" stop-opacity="0.92"/><stop offset="0.71" stop-color="#6acd17" stop-opacity="0.94"/><stop offset="0.89" stop-color="#4dc60a" stop-opacity="0.98"/><stop offset="1" stop-color="#38c000"/></linearGradient><linearGradient id="linear-gradient-2" x1="572.24" y1="760.22" x2="700.11" y2="760.22" gradientUnits="userSpaceOnUse"><stop offset="0.04" stop-color="#8ed727" stop-opacity="0.9"/><stop offset="0.25" stop-color="#8ad526" stop-opacity="0.9"/><stop offset="0.42" stop-color="#7fce23" stop-opacity="0.91"/><stop offset="0.58" stop-color="#6cc31d" stop-opacity="0.93"/><stop offset="0.73" stop-color="#51b315" stop-opacity="0.94"/><stop offset="0.87" stop-color="#2f9e0c" stop-opacity="0.97"/><stop offset="1" stop-color="#078600"/></linearGradient><linearGradient id="linear-gradient-3" x1="566.33" y1="843.79" x2="674.01" y2="843.79" xlink:href="#linear-gradient"/><linearGradient id="linear-gradient-4" x1="517.95" y1="571.29" x2="729.22" y2="571.29" xlink:href="#linear-gradient-2"/><linearGradient id="New_Gradient_Swatch_3" x1="741.9" y1="639.45" x2="825.63" y2="639.45" gradientTransform="matrix(1, 0, 0, -1, 0, 1080)" gradientUnits="userSpaceOnUse"><stop offset="0.04" stop-color="#5be400" stop-opacity="0.9"/><stop offset="0.31" stop-color="#57e100" stop-opacity="0.91"/><stop offset="0.54" stop-color="#4cd800" stop-opacity="0.92"/><stop offset="0.74" stop-color="#38c900" stop-opacity="0.95"/><stop offset="0.93" stop-color="#1db300" stop-opacity="0.98"/><stop offset="1" stop-color="#12aa00"/></linearGradient><linearGradient id="New_Gradient_Swatch_3-2" x1="956.05" y1="424.88" x2="1050.06" y2="424.88" gradientTransform="matrix(1.13, 0.25, 0.36, -1.38, -402.95, 868.76)" xlink:href="#New_Gradient_Swatch_3"/><linearGradient id="linear-gradient-5" x1="561.75" y1="821.12" x2="682.55" y2="821.12" xlink:href="#linear-gradient"/><linearGradient id="linear-gradient-6" x1="507.48" y1="515.44" x2="744.48" y2="515.44" xlink:href="#linear-gradient-2"/><linearGradient id="New_Gradient_Swatch_3-3" x1="869" y1="413.24" x2="999.03" y2="413.24" gradientTransform="matrix(1.05, 0.1, 0.1, -1.06, -125.21, 928.12)" xlink:href="#New_Gradient_Swatch_3"/><linearGradient id="New_Gradient_Swatch_3-4" x1="448.09" y1="708.84" x2="549.71" y2="708.84" xlink:href="#New_Gradient_Swatch_3"/><linearGradient id="New_Gradient_Swatch_3-5" x1="1011.18" y1="759.25" x2="1081.19" y2="759.65" gradientTransform="matrix(1.58, 0.01, -0.01, -1.5, -891.05, 1422.76)" xlink:href="#New_Gradient_Swatch_3"/><linearGradient id="New_Gradient_Swatch_3-6" x1="949.69" y1="452.25" x2="1050.96" y2="452.25" gradientTransform="matrix(1.13, 0.25, 0.36, -1.38, -402.95, 868.76)" xlink:href="#New_Gradient_Swatch_3"/><linearGradient id="linear-gradient-7" x1="543.98" y1="804.91" x2="674.12" y2="804.91" xlink:href="#linear-gradient"/><linearGradient id="linear-gradient-8" x1="485.51" y1="475.59" x2="740.84" y2="475.59" xlink:href="#linear-gradient-2"/><linearGradient id="New_Gradient_Swatch_3-7" x1="817.7" y1="827.49" x2="928.1" y2="827.49" xlink:href="#New_Gradient_Swatch_3"/><linearGradient id="New_Gradient_Swatch_3-8" x1="953.97" y1="516.96" x2="1113.12" y2="516.96" gradientTransform="matrix(1.05, 0.1, 0.1, -1.06, -125.21, 928.12)" xlink:href="#New_Gradient_Swatch_3"/><linearGradient id="New_Gradient_Swatch_3-9" x1="462.8" y1="856.54" x2="587.17" y2="856.54" xlink:href="#New_Gradient_Swatch_3"/><linearGradient id="New_Gradient_Swatch_3-10" x1="1057.1" y1="869.79" x2="1142.79" y2="870.28" gradientTransform="matrix(1.58, 0.01, -0.01, -1.5, -891.05, 1422.76)" xlink:href="#New_Gradient_Swatch_3"/><linearGradient id="New_Gradient_Swatch_2" x1="1826.62" y1="697.5" x2="1883.16" y2="697.5" gradientTransform="matrix(-1.54, 0.54, -0.47, -1.43, 3776.29, 632.45)" gradientUnits="userSpaceOnUse"><stop offset="0.04" stop-color="#8ed727" stop-opacity="0.9"/><stop offset="0.47" stop-color="#8ad727" stop-opacity="0.91"/><stop offset="0.82" stop-color="#7dd727" stop-opacity="0.96"/><stop offset="1" stop-color="#73d727"/></linearGradient><linearGradient id="New_Gradient_Swatch_3-11" x1="1700.97" y1="664" x2="1757.5" y2="664" gradientTransform="matrix(0.05, -1.63, 1.5, 0.07, -219.01, 3441.83)" xlink:href="#New_Gradient_Swatch_3"/><linearGradient id="New_Gradient_Swatch_3-12" x1="1006.74" y1="551.55" x2="1130.69" y2="551.55" gradientTransform="matrix(1.13, 0.25, 0.36, -1.38, -402.95, 868.76)" xlink:href="#New_Gradient_Swatch_3"/><linearGradient id="linear-gradient-9" x1="580.16" y1="754.33" x2="739.44" y2="754.33" xlink:href="#linear-gradient"/><linearGradient id="linear-gradient-10" x1="508.6" y1="351.26" x2="821.1" y2="351.26" xlink:href="#linear-gradient-2"/><linearGradient id="New_Gradient_Swatch_2-2" x1="497.61" y1="872.89" x2="827.81" y2="872.89" gradientTransform="matrix(1, 0, 0, 1, 0, 0)" xlink:href="#New_Gradient_Swatch_2"/></defs><g id="Layer_5" data-name="Layer 5"><path class="cls-1" d="M664.26,878.75c-5.11,14.74-13.34,28.7-20,42.71,0,0-27.34,53.18-15.6,75.91S617,1010.59,617,1010.59l-5.32-10.51c-.08-2.11-.08-4.27,0-6.48l.62-7.71v0c2.25-19.56,9.33-39.77,12.56-53.13s1.14-22.16-9.3-38.09c-7.28-11.12-13.8-21.47-14-21.74,5.73,4.59,11.43,13.1,16.74,19.9,12.85,16.35,13.15,21.74,13.15,21.74s17.22-12.3,24.18-40.18c3.52-14.1-2.87-27.14-10-36.6,5.57,2.53,11.22,6,15.43,10.66C668.27,856.52,667.66,868.88,664.26,878.75Z" transform="translate(-10.86 -33.67)"/><path class="cls-2" d="M700.11,677.38c-3.4,5-11.7,17.13-19.56,30.54a.16.16,0,0,1,0,.09s0,0-.08.09c-1.48,2.48-2.91,5-4.3,7.53a43.48,43.48,0,0,0-2.33,5h0c-5.53,10.79-12.69,25.63-14.08,33.25-2.37,12.72.78,28.93,3,37,2,7.44,4.46,14.74,6.83,22a48.56,48.56,0,0,1,1.27,27.37,4.79,4.79,0,0,1-1.06,2.39c-3.07,3-18.66-10-21.28-11.85-7.41-5.23-11.09-10.33-18.41-15.7-10.81-7.9-24.52-32.33-26.11-36.38-1.43-3.62-26.48-50.33-31.71-60.06,3.19,5.69,7.73,11.48,10.88,17.31,6.34,11.71,12.44,23.56,19,35.18,6.91,12.21,13.91,23.56,24.26,33,11.22,10.2,24.11,18.19,36.67,26.36,0,0,10.8,4.32-2-29.44-12.89-34.07-1.8-56.21-1-62.22,1.23-9.23-2.54-20.58-5.15-26.64l8.63,15.52C670.36,719.31,693.69,686.43,700.11,677.38Z" transform="translate(-10.86 -33.67)"/><path class="cls-3" d="M716.4,778.36c19.31-10.79,37-11.2,49.84-11.29S750,764.72,750,764.72s-20.34,1.7-29,6.34c2.08-1.24,36.33-21.67,35.39-38.67,0,0-.49,15-46.15,41.34,0,0-26.19,17.12-36.22,35.13,0,0-3.07-11.35-6.46-25.31,0,0,5.73-22.59,21.6-32.37,15.63-9.6,33.39-29.67,33.92-30.27-.69.6-23,19.71-35.19,25.9,0,0-21.77,8.68-22.79,27.24.17-7.63,1.27-35.36,8.76-53.41-5.53,10.79-12.69,25.62-14.08,33.25-2.37,12.72.78,28.93,3,37,2,7.44,4.46,14.75,6.83,22a48.55,48.55,0,0,1,1.27,27.37,4.79,4.79,0,0,1-1.06,2.39c-3.07,3-18.66-10-21.28-11.85-7.41-5.24-11.09-10.34-18.41-15.71-10.81-7.9-24.52-32.33-26.11-36.37-1.43-3.63-26.48-50.33-31.71-60.07,0,0,0,0,0-.09a4.84,4.84,0,0,0-.24-.46,3.22,3.22,0,0,1-.29-.55c0-.09-.12-.18-.16-.27s0-.1-.08-.1c5.24,10.25,10.19,20.67,15,31.14,5.65,12.26,10.28,25.53,15.55,38.21,2.54,6.06,5,12.26,8.92,17.36a101.88,101.88,0,0,0,14.41,14.51c-.78-.69-7.74,2.25-9,2.66a92.54,92.54,0,0,1-9.17,2.71,71.93,71.93,0,0,1-19.07,1.61c-6.5-.32-12.4-1.93-18.62-3.58,10,2.71,18.95,6.93,29.47,6.7,11.66-.27,23.11-3.21,34.82-3.21a86.77,86.77,0,0,1,11.82,12.63c5.57,2.52,11.22,6,15.43,10.65,7.28,8,6.67,20.43,3.27,30.31-5.11,14.74-13.34,28.7-20,42.71,0,0-27.34,53.17-15.6,75.91S617,1010.73,617,1010.73l-5.32-10.51c.33,8.58,2.09,16.71,6.18,23.6l10,14.47h46.65l6.67-17.68s-54.79-22.55-38.42-67.14c0,0,31.14-49.05,65.84-61.72,0,0-34.7,9.92-43.5,19.38.25-.6,16.45-40.19,51.36-52.17,32.9-11.3,51.55-40.87,51.84-41.33-.49.5-32.41,32-51.84,37.19,0,0-32.41,10.84-44.4,30.5-7.24,11.85-10.6,17.63-12.16,20.43,5.61-10.79,27.79-56.11,19.11-82.29C678.91,823.41,694.09,790.81,716.4,778.36ZM665,776c0-.69,0-1.33,0-2C665,775.29,665,776,665,776Zm-6.38,131.85c.12-.23.37-.74.94-1.75Z" transform="translate(-10.86 -33.67)"/></g><g id="Layer_6" data-name="Layer 6"><path class="cls-4" d="M670,767.13c-8.46,24.35-22,47.42-33,70.56,0,0-45.16,87.86-25.76,125.42S591.84,985,591.84,985l-8.79-17.38c-.13-3.49-.13-7.05.07-10.69l1-12.75v-.08c3.72-32.32,15.42-65.7,20.76-87.78,5.27-21.93,1.88-36.61-15.36-62.94-12-18.36-22.8-35.46-23.2-35.92,9.46,7.59,18.88,21.66,27.67,32.89,21.22,27,21.71,35.92,21.71,35.92s28.46-20.33,39.95-66.39c5.82-23.29-4.73-44.84-16.56-60.47,9.19,4.17,18.52,9.86,25.49,17.6C676.62,730.4,675.61,750.81,670,767.13Z" transform="translate(-10.86 -33.67)"/><path class="cls-5" d="M729.22,434.42c-5.61,8.19-19.34,28.3-32.32,50.45a.29.29,0,0,1-.06.16c0,.07-.07.07-.14.15-2.43,4.1-4.8,8.27-7.1,12.44a72.78,72.78,0,0,0-3.85,8.2h0c-9.13,17.83-21,42.33-23.26,54.93-3.92,21,1.29,47.8,4.94,61.08,3.38,12.29,7.37,24.35,11.29,36.42,5,15.55,5.74,28.75,2.09,45.22a7.81,7.81,0,0,1-1.75,3.94c-5.08,5-30.83-16.54-35.16-19.57-12.24-8.65-18.32-17.07-30.42-26-17.85-13-40.5-53.42-43.14-60.09-2.36-6-43.74-83.16-52.39-99.25,5.27,9.41,12.77,19,18,28.61,10.48,19.35,20.55,38.92,31.44,58.12,11.42,20.18,23,38.92,40.09,54.47,18.52,16.85,39.82,30,60.58,43.56,0,0,17.84,7.13-3.25-48.64-21.3-56.3-3-92.87-1.62-102.81,2-15.25-4.19-34-8.52-44l14.26,25.65C680.07,503.69,718.61,449.37,729.22,434.42Z" transform="translate(-10.86 -33.67)"/><path class="cls-3" d="M756.13,601.27c31.91-17.84,61-18.52,82.34-18.67s-26.84-3.87-26.84-3.87-33.6,2.81-48,10.47c3.45-2.05,60-35.81,58.48-63.88,0,0-.81,24.73-76.26,68.28,0,0-43.27,28.3-59.83,58,0,0-5.07-18.75-10.68-41.81,0,0,9.46-37.33,35.69-53.49,25.83-15.86,55.17-49,56.05-50-1.15,1-38,32.55-58.14,42.79,0,0-36,14.34-37.66,45,.27-12.59,2.1-58.42,14.47-88.24-9.13,17.83-21,42.34-23.26,54.93-3.92,21,1.29,47.8,4.94,61.08,3.38,12.29,7.37,24.36,11.29,36.42,5,15.56,5.74,28.76,2.09,45.22a7.89,7.89,0,0,1-1.75,4c-5.08,5-30.83-16.54-35.16-19.58-12.24-8.65-18.32-17.07-30.42-25.95-17.85-13.05-40.5-53.41-43.14-60.09-2.36-6-43.74-83.16-52.39-99.24,0-.08-.07-.08-.07-.15a6.53,6.53,0,0,0-.41-.76,5.63,5.63,0,0,1-.47-.91c-.07-.15-.2-.31-.27-.46s-.07-.15-.14-.15c8.66,16.92,16.84,34.14,24.82,51.44,9.33,20.26,17,42.19,25.69,63.13,4.19,10,8.18,20.26,14.74,28.68,7,9,15.27,16.62,23.79,24-1.28-1.14-12.77,3.71-14.87,4.4a149.85,149.85,0,0,1-15.14,4.47A118.86,118.86,0,0,1,544.11,679c-10.75-.53-20.49-3.19-30.76-5.92,16.49,4.48,31.3,11.46,48.68,11.08,19.26-.46,38.19-5.31,57.53-5.31a144.89,144.89,0,0,1,19.54,20.86c9.19,4.18,18.52,9.87,25.49,17.61,12,13.27,11,33.76,5.41,50.07-8.46,24.36-22,47.42-33,70.57,0,0-45.16,87.86-25.76,125.42s-19.4,21.85-19.4,21.85l-8.79-17.38c.54,14.19,3.45,27.62,10.21,39l16.5,23.9h77.07l11-29.21s-90.53-37.25-63.48-110.93c0,0,51.45-81,108.78-102,0,0-57.33,16.39-71.87,32,.41-1,27.18-66.39,84.85-86.2,54.36-18.66,85.18-67.52,85.66-68.28-.81.83-53.55,53-85.66,61.46,0,0-53.55,17.9-73.36,50.38-12,19.57-17.51,29.13-20.08,33.76,9.27-17.83,45.91-92.72,31.58-136C694.2,675.7,719.28,621.83,756.13,601.27Zm-84.85-3.87c0-1.14,0-2.2.07-3.27C671.28,596.18,671.28,597.4,671.28,597.4ZM660.73,815.23c.21-.38.61-1.21,1.56-2.88C661.48,813.86,660.94,814.85,660.73,815.23Z" transform="translate(-10.86 -33.67)"/></g><g id="Layer_7" data-name="Layer 7"><path class="cls-6" d="M825.63,403.09s-83.73,8.09-83.73,73.2c0,2.3,23.74,1.7,25.41,1.45,21.08-2.39,35.11-19,46-36.6C818.12,433.31,821.08,425.56,825.63,403.09Z" transform="translate(-10.86 -33.67)"/><path class="cls-7" d="M825.25,529.14S856.8,472,899.72,509.82c0,0,14.87,17.88,38.91,14.05,0,0-23,35.4-61.73,39.06S825.25,529.14,825.25,529.14Z" transform="translate(-10.86 -33.67)"/><path class="cls-8" d="M678,735.12c-9.48,27.32-24.72,53.19-37,79.15,0,0-50.66,98.56-28.89,140.69s-21.77,24.52-21.77,24.52L580.51,960c-.15-3.91-.15-7.91.08-12l1.14-14.3v-.08C585.9,897.34,599,859.89,605,835.12c5.92-24.59,2.11-41.06-17.23-70.6-13.5-20.59-25.57-39.78-26-40.29,10.62,8.52,21.18,24.29,31,36.89,23.81,30.3,24.35,40.3,24.35,40.3S649.07,778.61,662,727c6.52-26.13-5.31-50.31-18.59-67.84,10.32,4.68,20.78,11.07,28.6,19.75C685.48,693.92,684.34,716.82,678,735.12Z" transform="translate(-10.86 -33.67)"/><path class="cls-9" d="M744.48,361.9c-6.29,9.19-21.69,31.74-36.25,56.6a.28.28,0,0,1-.08.17c0,.08-.07.08-.15.17-2.73,4.59-5.38,9.28-8,14a80.14,80.14,0,0,0-4.33,9.19h0c-10.23,20-23.51,47.49-26.08,61.62-4.4,23.58,1.44,53.62,5.53,68.52,3.79,13.78,8.27,27.32,12.67,40.85,5.61,17.45,6.44,32.26,2.35,50.73a8.91,8.91,0,0,1-2,4.42c-5.69,5.62-34.59-18.55-39.44-22-13.73-9.7-20.55-19.15-34.13-29.1-20-14.64-45.43-59.92-48.38-67.41-2.66-6.73-49.07-93.29-58.78-111.33,5.91,10.55,14.33,21.28,20.17,32.09,11.76,21.7,23.06,43.66,35.27,65.19,12.82,22.64,25.78,43.67,45,61.11,20.78,18.9,44.67,33.71,68,48.86,0,0,20,8-3.64-54.56-23.89-63.15-3.33-104.18-1.82-115.33,2.28-17.1-4.7-38.13-9.55-49.36l16,28.77C689.34,439.61,732.57,378.67,744.48,361.9Z" transform="translate(-10.86 -33.67)"/><path class="cls-3" d="M774.66,549.06c35.8-20,68.49-20.77,92.38-20.94s-30.11-4.34-30.11-4.34-37.69,3.15-53.85,11.75c3.87-2.3,67.35-40.18,65.6-71.67,0,0-.91,27.75-85.54,76.6,0,0-48.54,31.75-67.12,65.12,0,0-5.69-21-12-46.9,0,0,10.61-41.88,40-60,29-17.78,61.88-55,62.87-56.09-1.29,1.11-42.62,36.52-65.22,48,0,0-40.35,16.08-42.25,50.47.31-14.13,2.36-65.54,16.23-99-10.23,20-23.51,47.5-26.08,61.63-4.4,23.57,1.44,53.62,5.53,68.51,3.79,13.79,8.27,27.32,12.67,40.86,5.61,17.44,6.44,32.25,2.35,50.72a8.94,8.94,0,0,1-2,4.43c-5.69,5.62-34.59-18.56-39.44-22-13.73-9.7-20.55-19.15-34.13-29.11-20-14.64-45.43-59.92-48.38-67.41-2.66-6.72-49.07-93.28-58.78-111.33,0-.08-.08-.08-.08-.17a8.22,8.22,0,0,0-.45-.85,6.21,6.21,0,0,1-.53-1c-.08-.17-.23-.34-.31-.51s-.07-.17-.15-.17c9.71,19,18.89,38.3,27.84,57.71,10.46,22.72,19,47.32,28.82,70.81,4.7,11.24,9.17,22.73,16.53,32.17,7.81,10.13,17.14,18.64,26.69,26.9-1.44-1.28-14.33,4.17-16.68,4.94a172.1,172.1,0,0,1-17,5,133.77,133.77,0,0,1-35.34,3c-12.06-.6-23-3.58-34.51-6.64,18.51,5,35.12,12.85,54.61,12.42,21.61-.51,42.85-6,64.54-6a161.92,161.92,0,0,1,21.91,23.4c10.32,4.68,20.79,11.07,28.6,19.75,13.5,14.89,12.36,37.87,6.06,56.17-9.48,27.32-24.72,53.2-37,79.16,0,0-50.66,98.56-28.89,140.69s-21.77,24.51-21.77,24.51l-9.86-19.49c.61,15.92,3.87,31,11.46,43.75l18.5,26.81h86.46L709.29,998S607.74,956.24,638.08,873.6c0,0,57.71-90.91,122-114.4,0,0-64.31,18.39-80.62,35.92.46-1.11,30.49-74.47,95.18-96.69,61-20.93,95.56-75.75,96.09-76.6-.91.94-60.06,59.41-96.09,68.94,0,0-60.06,20.09-82.28,56.52-13.43,22-19.65,32.68-22.53,37.87,10.39-20,51.5-104,35.42-152.52C705.19,632.56,733.33,572.13,774.66,549.06Zm-95.18-4.34c0-1.28,0-2.47.08-3.66C679.48,543.36,679.48,544.72,679.48,544.72ZM667.65,789.08c.23-.43.69-1.36,1.75-3.24C668.49,787.55,667.88,788.65,667.65,789.08Z" transform="translate(-10.86 -33.67)"/></g><g id="Layer_8" data-name="Layer 8"><path class="cls-10" d="M822.13,641.37c-3.92-1,14.3-41.35,15.61-43.64,18.55-30.63,48.45-44,80.23-55.57a409.45,409.45,0,0,1,40-12.65c1-.28,11.76-1.75,12-2.57-11.77,34.75-27,76.29-52.86,102.42C893.46,653.38,852.28,648.89,822.13,641.37Z" transform="translate(-10.86 -33.67)"/><path class="cls-11" d="M448.09,280.74s3,76.2,6.13,134.24c2.77,52.36,72,46.4,72,46.4s48.53-49.06,6.13-90.32C489,328.88,448.09,280.74,448.09,280.74Z" transform="translate(-10.86 -33.67)"/><path class="cls-12" d="M812.57,216.09A478.15,478.15,0,0,0,768,245.62c-23.77,17.61-55.56,38.33-63.48,68.95-9.56,36.68,31.54,62.17,63.89,46.95,30.23-14.21,32-49.7,26-77.75-3.43-16-.49-33.56,6.13-48.33C802.77,230.12,807.1,219.21,812.57,216.09Z" transform="translate(-10.86 -33.67)"/><path class="cls-13" d="M827.85,490.35s34-61.52,80.24-20.81c0,0,16,19.25,41.91,15.13,0,0-24.75,38.14-66.51,42.08S827.85,490.35,827.85,490.35Z" transform="translate(-10.86 -33.67)"/><path class="cls-14" d="M669.26,712.25c-10.21,29.44-26.63,57.31-39.87,85.28,0,0-54.58,106.18-31.13,151.57s-23.45,26.41-23.45,26.41l-10.62-21c-.16-4.22-.16-8.53.08-12.93l1.23-15.4v-.1C570,887,584.13,846.68,590.58,820c6.38-26.5,2.28-44.24-18.56-76.06-14.54-22.19-27.55-42.85-28-43.4,11.44,9.17,22.82,26.17,33.44,39.74,25.65,32.64,26.23,43.41,26.23,43.41s34.4-24.57,48.29-80.23c7-28.15-5.72-54.19-20-73.08,11.12,5,22.39,11.92,30.81,21.27C677.27,667.87,676.05,692.54,669.26,712.25Z" transform="translate(-10.86 -33.67)"/><path class="cls-15" d="M740.84,310.17c-6.78,9.91-23.37,34.21-39.06,61a.3.3,0,0,1-.08.18c0,.09-.08.09-.16.19-2.94,5-5.8,10-8.58,15a87.72,87.72,0,0,0-4.66,9.91h0c-11,21.55-25.33,51.16-28.11,66.38-4.73,25.4,1.56,57.77,6,73.82,4.08,14.85,8.91,29.43,13.64,44,6.05,18.8,7,34.75,2.54,54.65-.41,1.74-.9,3.58-2.13,4.77-6.13,6-37.25-20-42.48-23.66C622.94,606,615.58,595.8,601,585.07c-21.57-15.77-48.94-64.55-52.13-72.62C546,505.21,496,412,485.51,392.51c6.37,11.37,15.44,22.93,21.73,34.57,12.67,23.39,24.84,47,38,70.24,13.8,24.39,27.78,47,48.45,65.84,22.38,20.35,48.12,36.31,73.2,52.63,0,0,21.57,8.62-3.92-58.78-25.73-68-3.59-112.23-2-124.24,2.45-18.43-5.06-41.08-10.29-53.18l17.24,31C681.44,393.89,728,328.24,740.84,310.17Z" transform="translate(-10.86 -33.67)"/><path class="cls-3" d="M773.36,511.81c38.56-21.55,73.78-22.37,99.51-22.56s-32.43-4.67-32.43-4.67-40.61,3.39-58,12.65C786.59,494.75,855,454,853.1,420c0,0-1,29.9-92.16,82.53,0,0-52.29,34.2-72.31,70.14,0,0-6.13-22.64-12.91-50.52,0,0,11.44-45.11,43.14-64.64,31.21-19.17,66.67-59.24,67.73-60.43-1.39,1.19-45.92,39.34-70.26,51.71,0,0-43.47,17.33-45.51,54.38.32-15.22,2.53-70.61,17.48-106.64-11,21.55-25.33,51.16-28.11,66.39-4.73,25.39,1.56,57.76,6,73.81,4.08,14.85,8.91,29.43,13.64,44,6.05,18.8,7,34.75,2.54,54.65-.41,1.74-.9,3.58-2.13,4.77-6.13,6.05-37.25-20-42.48-23.66-14.79-10.45-22.15-20.63-36.77-31.36-21.57-15.77-48.94-64.55-52.13-72.62C546,505.3,496,412.05,485.51,392.61c0-.1-.08-.1-.08-.19-.17-.36-.33-.64-.49-.91a6.8,6.8,0,0,1-.57-1.1c-.09-.19-.25-.37-.33-.55s-.08-.19-.16-.19c10.45,20.45,20.34,41.26,30,62.17,11.28,24.48,20.51,51,31,76.29,5.06,12.1,9.89,24.48,17.81,34.66,8.42,10.91,18.47,20.08,28.76,29-1.55-1.38-15.44,4.49-18,5.31a181.83,181.83,0,0,1-18.31,5.41,143,143,0,0,1-38.07,3.21c-13-.64-24.76-3.85-37.18-7.15,19.94,5.41,37.83,13.85,58.83,13.39,23.29-.55,46.16-6.42,69.53-6.42a174.56,174.56,0,0,1,23.61,25.22c11.12,5,22.39,11.92,30.81,21.27,14.54,16,13.32,40.8,6.53,60.52-10.21,29.43-26.63,57.31-39.87,85.27,0,0-54.58,106.19-31.13,151.57s-23.45,26.41-23.45,26.41l-10.62-21c.66,17.15,4.17,33.38,12.34,47.13l19.93,28.89h93.15l13.32-35.3s-109.41-45-76.72-134.06c0,0,62.17-97.93,131.46-123.24,0,0-69.29,19.81-86.85,38.7.49-1.2,32.84-80.24,102.54-104.17,65.69-22.55,102.94-81.61,103.52-82.52-1,1-64.71,64-103.52,74.27,0,0-64.71,21.64-88.65,60.88-14.47,23.66-21.17,35.22-24.27,40.81,11.19-21.55,55.48-112,38.16-164.32C698.51,601.76,728.83,536.66,773.36,511.81Zm-102.54-4.68c0-1.37,0-2.66.08-3.94C670.82,505.67,670.82,507.13,670.82,507.13ZM658.07,770.39c.25-.46.74-1.47,1.88-3.49C659,768.74,658.32,769.93,658.07,770.39Z" transform="translate(-10.86 -33.67)"/></g><g id="Layer_10" data-name="Layer 10"><path id="path3973" class="cls-16" d="M530.88,302.94c-15.07,3-24.28,24.38-20.57,47.67s18.95,39.71,34,36.67,24.28-24.39,20.57-47.68-18.95-39.7-34-36.66Z" transform="translate(-10.86 -33.67)"/><path id="path3975" class="cls-17" d="M529.85,305.79c-14.07,2.83-22.71,22.44-19.29,43.79s17.58,36.37,31.65,33.54,22.7-22.43,19.28-43.79S543.91,303,529.85,305.79Z" transform="translate(-10.86 -33.67)"/><path id="path3977" class="cls-18" d="M530.19,307.93c23.74,16.71,12.4,61.36,11.67,73-8.74-13.34,4.29-59.69-11.67-73Z" transform="translate(-10.86 -33.67)"/><path id="path3979" class="cls-19" d="M530.19,307.93c12.82,20.88-2.65,52.34,11.67,73-19.81-11.42-7.89-49.49-11.67-73Z" transform="translate(-10.86 -33.67)"/><path id="path3981" class="cls-20" d="M529.4,303c-15.08,3-24.33,24.05-20.67,46.94s18.84,39,33.92,35.95,24.33-24,20.68-46.94S544.48,300,529.4,303Zm.79,4.92c17.23,18.82,4.55,50,11.67,73-16.5-12.5-3.54-50.91-11.67-73Z" transform="translate(-10.86 -33.67)"/><path id="path3983" class="cls-21" d="M522.48,308.59C515,335.19,512.72,369.24,539,386,507.55,378.09,500.3,326.67,522.48,308.59Z" transform="translate(-10.86 -33.67)"/><path id="path3985" class="cls-22" d="M551.92,380c15-14.77,13.9-48.48.32-65.18C563,337.62,561.32,367.83,551.92,380Z" transform="translate(-10.86 -33.67)"/><path id="path3973-6" class="cls-16" d="M611.88,507.39c8.45-9.11,24.37-5.94,35.56,7.1s13.41,31,5,40.11-24.36,5.94-35.55-7.09-13.42-31-5-40.12Z" transform="translate(-10.86 -33.67)"/><path id="path3975-0" class="cls-17" d="M613.92,508c7.88-8.51,22.58-5.71,32.84,6.24s12.19,28.55,4.31,37.06S628.5,557,618.24,545,606.05,516.46,613.92,508Z" transform="translate(-10.86 -33.67)"/><path id="path3977-6" class="cls-18" d="M615,509.15c-1.43,24,28.31,36.17,35.09,40.9-3.45-12.07-34.88-23.8-35.09-40.9Z" transform="translate(-10.86 -33.67)"/><path id="path3979-2" class="cls-19" d="M615,509.15c5.78,18.29,30.09,21.65,35.09,40.9,2.59-18.9-23.79-27.7-35.09-40.9Z" transform="translate(-10.86 -33.67)"/><path id="path3981-6" class="cls-20" d="M612.59,506.4c8.44-9.13,24.2-6.13,35.19,6.69s13.07,30.6,4.63,39.72-24.2,6.13-35.2-6.69-13.06-30.6-4.62-39.72Zm2.36,2.75c2.66,20.43,25.56,25.6,35.09,40.9.51-17.09-26.52-25.32-35.09-40.9Z" transform="translate(-10.86 -33.67)"/><path id="path3983-1" class="cls-21" d="M618.77,504.09c18.06,6.71,37.87,20.43,35.33,46.2,9.75-25.39-15.39-53.51-35.33-46.2Z" transform="translate(-10.86 -33.67)"/><path id="path3985-8" class="cls-22" d="M645,556.61c-14.88,3.78-33-12.1-36.13-29C616.61,545.3,634.05,557.68,645,556.61Z" transform="translate(-10.86 -33.67)"/><path id="path3973-2" data-name="path3973" class="cls-16" d="M943.27,368.5c-13.41-8.3-32.55,1.75-42.75,22.46s-7.6,44.22,5.81,52.53,32.55-1.75,42.75-22.45,7.6-44.23-5.81-52.54Z" transform="translate(-10.86 -33.67)"/><path id="path3975-2" data-name="path3975" class="cls-17" d="M940.86,370c-12.51-7.75-30.23,1.36-39.57,20.35S894.5,431,907,438.76s30.23-1.36,39.57-20.35S953.37,377.74,940.86,370Z" transform="translate(-10.86 -33.67)"/><path id="path3977-2" data-name="path3977" class="cls-18" d="M939.92,371.89c9,29.76-24.84,56.41-32,65,.72-16.55,36.86-43.3,32-65Z" transform="translate(-10.86 -33.67)"/><path id="path3979-2-2" data-name="path3979" class="cls-19" d="M939.92,371.89c-1.78,25.28-31.46,38.75-32,65-9-22.89,21.68-44,32-65Z" transform="translate(-10.86 -33.67)"/><path id="path3981-2" data-name="path3981" class="cls-20" d="M942.08,367.51c-13.41-8.31-32.4,1.45-42.42,21.81s-7.28,43.6,6.13,51.91,32.4-1.45,42.42-21.81,7.27-43.6-6.13-51.91Zm-2.16,4.38c2.81,26.8-24.55,42-32,65-5.79-21.39,25.85-42,32-65Z" transform="translate(-10.86 -33.67)"/><path id="path3983-2" data-name="path3983" class="cls-21" d="M933.57,367c-20.78,15.33-41.65,40.17-30.67,71.74C882.93,410.33,906.19,365.29,933.57,367Z" transform="translate(-10.86 -33.67)"/><path id="path3985-2" data-name="path3985" class="cls-22" d="M916.3,443.21c19.93-.87,38-27.8,36.87-50.37C948.73,418.16,930.44,440.41,916.3,443.21Z" transform="translate(-10.86 -33.67)"/><path id="path3973-3" data-name="path3973" class="cls-16" d="M795.45,182.26c-14.92,3.89-23.16,25.73-18.4,48.78s20.7,38.58,35.62,34.69S835.83,240,831.08,217s-20.71-38.58-35.63-34.7Z" transform="translate(-10.86 -33.67)"/><path id="path3977-3" data-name="path3977" class="cls-18" d="M795,187.29c24.46,15.35,15.14,60.58,14.94,72.29-9.33-12.84,1.61-59.85-14.94-72.29Z" transform="translate(-10.86 -33.67)"/><path id="path3979-3" data-name="path3979" class="cls-19" d="M795,187.29c13.74,20.13-.3,52.42,14.94,72.29-20.31-10.29-10.1-49-14.94-72.29Z" transform="translate(-10.86 -33.67)"/><path id="path3981-3" data-name="path3981" class="cls-20" d="M794,182.42c-14.93,3.88-23.23,25.39-18.55,48.05s20.57,37.87,35.49,34,23.23-25.39,18.55-48-20.57-37.87-35.49-34Zm1,4.87c18.06,17.82,6.79,49.67,14.94,72.29-17-11.55-5.83-50.65-14.94-72.29Z" transform="translate(-10.86 -33.67)"/><path id="path3983-3" data-name="path3983" class="cls-21" d="M787.32,188.38c-6.32,27-7,61.13,19.94,76.36C775.52,258.64,766,207.7,787.32,188.38Z" transform="translate(-10.86 -33.67)"/><path id="path3985-3" data-name="path3985" class="cls-22" d="M819.91,258.05c14.3-15.61,11.72-49.22-2.6-65.12C829.1,215.08,828.76,245.36,819.91,258.05Z" transform="translate(-10.86 -33.67)"/></g><g id="Layer_9" data-name="Layer 9"><path class="cls-23" d="M928.1,203.13s-110.4,10.66-110.4,96.51c0,3,31.3,2.25,33.5,1.91,27.8-3.14,46.3-25,60.6-48.26C918.2,243,922.1,232.76,928.1,203.13Z" transform="translate(-10.86 -33.67)"/><path class="cls-24" d="M920.6,554.17c-4.8-1.23,17.5-50.61,19.1-53.42,22.7-37.48,59.3-53.87,98.2-68a502.56,502.56,0,0,1,49-15.48c1.2-.34,14.4-2.14,14.7-3.15-14.4,42.54-33,93.38-64.7,125.36C1007.9,568.87,957.5,563.38,920.6,554.17Z" transform="translate(-10.86 -33.67)"/><path class="cls-25" d="M462.8,112.79s3.7,93.26,7.5,164.3c3.4,64.08,88.1,56.78,88.1,56.78s59.4-60,7.5-110.54C512.9,171.71,462.8,112.79,462.8,112.79Z" transform="translate(-10.86 -33.67)"/><path class="cls-26" d="M908.9,33.67A582,582,0,0,0,854.3,69.8c-29.1,21.55-68,46.92-77.7,84.4-11.7,44.89,38.6,76.09,78.2,57.46,37-17.4,39.1-60.83,31.8-95.17-4.2-19.64-.6-41.07,7.5-59.14C896.9,50.84,902.2,37.48,908.9,33.67Z" transform="translate(-10.86 -33.67)"/><path class="cls-27" d="M531.16,593.06a372.91,372.91,0,0,1,43,9.74c23.34,6.65,53.88,13.36,67.67,34.88,16.54,25.74-10.23,57.9-39.82,55.71-27.72-2.11-37.67-29.29-39.76-52.92-1.14-13.59-7.73-26.34-16.68-35.93C542.4,601.14,536.28,593.89,531.16,593.06Z" transform="translate(-10.86 -33.67)"/><path class="cls-28" d="M928,630.23a373.86,373.86,0,0,1-24.55,36.61c-14.59,19.39-31.84,45.47-56.87,50.6-30,6.18-50.35-30.36-37.67-57.19,11.94-25.1,40.88-24.62,63.68-18.07,13.09,3.82,27.36,2.26,39.52-2.64C916.46,637.81,925.42,634.71,928,630.23Z" transform="translate(-10.86 -33.67)"/><path class="cls-29" d="M927.6,369.34s41.6-75.31,98.2-25.48c0,0,19.6,23.57,51.3,18.52,0,0-30.3,46.68-81.4,51.51S927.6,369.34,927.6,369.34Z" transform="translate(-10.86 -33.67)"/><path class="cls-30" d="M733.5,640.92c-12.5,36-32.6,70.15-48.8,104.37,0,0-66.8,130-38.1,185.51s-28.7,32.33-28.7,32.33l-13-25.7c-.2-5.17-.2-10.44.1-15.83l1.5-18.85v-.11c5.5-47.81,22.8-97.19,30.7-129.85,7.8-32.43,2.79-54.15-22.71-93.09-17.8-27.16-33.73-52.45-34.33-53.13,14,11.23,27.93,32,40.93,48.64,31.4,39.95,32.11,53.14,32.11,53.14s42.1-30.08,59.1-98.2c8.6-34.45-7-66.33-24.5-89.44,13.6,6.17,27.4,14.59,37.7,26C743.3,586.61,741.8,616.8,733.5,640.92Z" transform="translate(-10.86 -33.67)"/><path class="cls-31" d="M821.1,148.81c-8.3,12.12-28.6,41.86-47.8,74.63a.39.39,0,0,1-.1.23c0,.11-.1.11-.2.22-3.6,6.06-7.1,12.23-10.5,18.41a107.29,107.29,0,0,0-5.7,12.12h0c-13.5,26.37-31,62.62-34.4,81.25-5.8,31.09,1.9,70.7,7.3,90.34,5,18.18,10.9,36,16.7,53.87,7.4,23,8.5,42.53,3.1,66.89-.5,2.13-1.1,4.37-2.6,5.83-7.5,7.41-45.6-24.46-52-29-18.1-12.8-27.1-25.25-45-38.38-26.4-19.31-59.9-79-63.8-88.89-3.5-8.86-64.7-123-77.5-146.79,7.8,13.92,18.9,28.06,26.6,42.31,15.5,28.62,30.4,57.57,46.5,86,16.9,29.85,34,57.57,59.3,80.57,27.4,24.92,58.9,44.45,89.6,64.42,0,0,26.4,10.55-4.8-71.93-31.5-83.28-4.4-137.37-2.4-152.07,3-22.56-6.2-50.28-12.6-65.09l21.1,37.93C748.4,251.27,805.4,170.92,821.1,148.81Z" transform="translate(-10.86 -33.67)"/><path class="cls-3" d="M860.9,395.6c47.2-26.38,90.3-27.39,121.8-27.61s-39.7-5.72-39.7-5.72-49.7,4.15-71,15.48c5.1-3,88.8-53,86.5-94.49,0,0-1.2,36.58-112.8,101,0,0-64,41.86-88.5,85.86,0,0-7.5-27.72-15.8-61.84,0,0,14-55.22,52.8-79.12,38.2-23.46,81.6-72.5,82.9-74-1.7,1.46-56.2,48.15-86,63.3,0,0-53.2,21.21-55.7,66.55.4-18.63,3.1-86.42,21.4-130.52-13.5,26.37-31,62.62-34.4,81.25-5.8,31.09,1.9,70.7,7.3,90.34,5,18.18,10.9,36,16.7,53.87,7.4,23,8.5,42.54,3.1,66.89-.5,2.13-1.1,4.38-2.6,5.83-7.5,7.41-45.6-24.46-52-29-18.1-12.79-27.1-25.25-45-38.38-26.4-19.3-59.9-79-63.8-88.88-3.5-8.87-64.7-123-77.5-146.8,0-.11-.1-.11-.1-.22a9.47,9.47,0,0,0-.6-1.12,8.7,8.7,0,0,1-.7-1.35c-.1-.22-.3-.45-.4-.67s-.1-.23-.2-.23c12.8,25,24.9,50.5,36.7,76.09,13.8,30,25.1,62.4,38,93.37,6.2,14.82,12.1,30,21.8,42.43,10.3,13.35,22.6,24.57,35.2,35.46-1.9-1.68-18.9,5.5-22,6.51a223.49,223.49,0,0,1-22.4,6.62,176,176,0,0,1-46.6,3.93c-15.9-.79-30.3-4.72-45.5-8.76,24.4,6.62,46.3,17,72,16.39,28.5-.67,56.5-7.86,85.1-7.86a214.06,214.06,0,0,1,28.9,30.87c13.6,6.17,27.4,14.58,37.7,26,17.8,19.64,16.3,49.94,8,74.07-12.5,36-32.6,70.14-48.8,104.37,0,0-66.8,130-38.1,185.51s-28.7,32.32-28.7,32.32l-13-25.7c.8,21,5.1,40.85,15.1,57.69l24.4,35.35h114l16.3-43.21s-133.9-55.1-93.9-164.07c0,0,76.1-119.86,160.9-150.84,0,0-84.8,24.25-106.3,47.36.6-1.46,40.2-98.19,125.5-127.49,80.4-27.6,126-99.88,126.7-101-1.2,1.24-79.2,78.34-126.7,90.9,0,0-79.2,26.49-108.5,74.52-17.7,29-25.9,43.1-29.7,49.94,13.7-26.37,67.9-137.14,46.7-201.11C769.3,505.69,806.4,426,860.9,395.6Zm-125.5-5.73c0-1.68,0-3.25.1-4.82C735.4,388.08,735.4,389.87,735.4,389.87ZM719.8,712.08c.3-.57.9-1.8,2.3-4.27C720.9,710.06,720.1,711.51,719.8,712.08Z" transform="translate(-10.86 -33.67)"/></g><g id="Layer_3" data-name="Layer 3"><path class="cls-32" d="M653.8,71.6c-35.9,9.32-62.6,56-55.9,97.41,8.8,54.66,65.3,80.58,107,59,28.5-14.7,47.6-55.55,42.2-91.35-6.4-43-49.6-72-85.2-66.77Q657.85,70.6,653.8,71.6Z" transform="translate(-10.86 -33.67)"/><path class="cls-33" d="M1045.8,174c-27.5-18.63-68.8-9.31-86.4,19.3-23.1,37.82-1.1,90.79,36.4,106.17,25.7,10.55,59.2-.56,74.5-24.91,18.5-29.41,6.6-75.31-18.7-96.07A35.55,35.55,0,0,0,1045.8,174Z" transform="translate(-10.86 -33.67)"/><path class="cls-34" d="M1045.37,175.05c-26.68-18.08-66.75-9-83.82,18.72-22.42,36.69-1.07,88.09,35.31,103,24.93,10.24,57.43-.54,72.28-24.17,17.95-28.53,6.4-73.06-18.15-93.2A33.38,33.38,0,0,0,1045.37,175.05Z" transform="translate(-10.86 -33.67)"/><path class="cls-34" d="M654.81,75.48c-34.4,8.92-60,53.66-53.56,93.34,8.43,52.37,62.57,77.21,102.52,56.56,27.31-14.08,45.61-53.23,40.44-87.53-6.13-41.19-47.53-69-81.64-64C660,74.3,657.4,74.83,654.81,75.48Z" transform="translate(-10.86 -33.67)"/><path class="cls-32" d="M772,369.39c-31-9.12-66.52,13.57-74.08,47.23-10,44.45,26.18,88.84,65.56,91.47,26.9,1.83,54.55-20,61.49-48.83,8.33-34.72-16.51-75.52-46-87.47C776.57,370.83,774.27,370.11,772,369.39Z" transform="translate(-10.86 -33.67)"/><path class="cls-34" d="M772.52,371.7c-29.68-8.72-63.65,13-70.88,45.19-9.58,42.54,25,85,62.73,87.53,25.73,1.75,52.2-19.12,58.83-46.73,8-33.21-15.79-72.26-44-83.69C776.91,373.08,774.72,372.39,772.52,371.7Z" transform="translate(-10.86 -33.67)"/><path class="cls-35" d="M646,106.4l6-4,4,7.61a38,38,0,0,1,12.44-4.08,41.79,41.79,0,0,1,8.64-.55l4.82,9.07q-3.76-.45-6.7-.54a35.22,35.22,0,0,0-5.3.22A42,42,0,0,0,659.77,117l15.11,28.46q5.21-2.05,9.17-3.23a24,24,0,0,1,6.88-1.14q10.62-.18,16.2,10.35a27.15,27.15,0,0,1,2.28,19.95,30.17,30.17,0,0,1-4,9.34,52.27,52.27,0,0,1-7.13,8.73l4.31,8.13-6,4-3.92-7.41A33.08,33.08,0,0,1,682,199a38.52,38.52,0,0,1-7.2,1.14,79.06,79.06,0,0,1-8.77.07l-4.87-9.17q10.88,1.77,18.58.15a26.41,26.41,0,0,0,9.24-3.93l-16.77-31.58a82.93,82.93,0,0,1-8.8,3.34,33.26,33.26,0,0,1-6.79,1.43q-11.25.6-16.85-9.92a24.08,24.08,0,0,1-2.09-18.66q2.76-9.48,12.4-17.9Zm22.19,41.81L653.73,121q-7.32,6.59-8.49,13.87a16.14,16.14,0,0,0,1.45,10.33q3.21,6,9.76,6.05a21.89,21.89,0,0,0,5-.74A51.24,51.24,0,0,0,668.18,148.21Zm10.69,4.72,15.82,29.82q6.62-7.25,7.52-14.78a17.35,17.35,0,0,0-1.77-10.68q-3.66-6.89-10.63-6.74A32.87,32.87,0,0,0,678.87,152.93Z" transform="translate(-10.86 -33.67)"/><path class="cls-35" d="M760.76,391.09l5.88.1-.1,7.41A31.74,31.74,0,0,1,777,401.83a38.6,38.6,0,0,1,6.37,3.87l-.12,8.83c-1.67-1.45-3.19-2.67-4.57-3.68a30.27,30.27,0,0,0-3.86-2.45,34.68,34.68,0,0,0-8.37-3l-.38,27.72q4.5,1.1,7.79,2.22a21,21,0,0,1,5.35,2.58q7.62,5.11,7.49,15.36a21.79,21.79,0,0,1-6.19,15.34,21.57,21.57,0,0,1-6.54,4.66,37.17,37.17,0,0,1-8.5,2.69l-.11,7.92-5.88-.1.1-7.21a26.53,26.53,0,0,1-9.48-1.79,32.74,32.74,0,0,1-5.57-2.74,71.74,71.74,0,0,1-6.28-4.27l.13-8.94q7.05,6.63,13.17,9.27a21.46,21.46,0,0,0,8.12,1.77l.43-30.77a68.7,68.7,0,0,1-7.58-2,28,28,0,0,1-5.39-2.33q-8.26-5.11-8.12-15.38.12-8.93,5.81-14.32t15.84-6.63Zm-.56,40.72.37-26.51q-7.8,1.09-11.49,5.69a13.06,13.06,0,0,0-3,8.08,10.24,10.24,0,0,0,4.58,9.12,19,19,0,0,0,3.86,1.94A40.71,40.71,0,0,0,760.2,431.81Zm5.76,8.63-.4,29q7.55-1.89,11.14-6.81a14.15,14.15,0,0,0,2.92-8.48q.09-6.7-4.93-10A28.3,28.3,0,0,0,766,440.44Z" transform="translate(-10.86 -33.67)"/><path class="cls-35" d="M1043.41,195.48l4.5,4.87L1043,206a42.38,42.38,0,0,1,6,11,51,51,0,0,1,2.45,8.21l-5.82,6.76c-.35-2.49-.74-4.68-1.16-6.59a39.56,39.56,0,0,0-1.41-5.05,46.78,46.78,0,0,0-4.57-9.15l-18.25,21.22q2.81,4.53,4.63,8.09a28.77,28.77,0,0,1,2.48,6.37,19,19,0,0,1-4.14,18,18.48,18.48,0,0,1-14.73,6.86,20.39,20.39,0,0,1-8.09-1.71,41.22,41.22,0,0,1-8.35-4.83l-5.22,6.06-4.5-4.88,4.74-5.52a35.19,35.19,0,0,1-6.2-9.12,44.61,44.61,0,0,1-2.56-6.67q-1.15-3.79-2.11-8.44l5.88-6.84a63.25,63.25,0,0,0,4.24,17.95,28.24,28.24,0,0,0,5.17,8l20.25-23.56q-2.79-4.22-4.62-7.7a39,39,0,0,1-2.68-6.21q-3.11-10.71,3.65-18.56,5.88-6.84,13.79-6.39t16.6,7.76Zm-26.81,31.18,17.45-20.3q-6.77-5.52-12.61-4.94a11,11,0,0,0-7.56,3.82,11.51,11.51,0,0,0-2.35,10.82,25.66,25.66,0,0,0,1.74,4.66A57.53,57.53,0,0,0,1016.6,226.66Zm-1.11,11.4L996.37,260.3q7.1,4.67,13.07,3.79a12,12,0,0,0,7.76-4.21,12.37,12.37,0,0,0,2.67-11.82A38.28,38.28,0,0,0,1015.49,238.06Z" transform="translate(-10.86 -33.67)"/><path class="cls-36" d="M529,455c-14.54,11-19.08,35.53-9.51,51.18,12.63,20.68,41.94,20.06,57.14,2.88,10.39-11.72,12.41-32.33,4.37-46-9.68-16.38-33.57-19.69-48.61-10.43C531.19,453.45,530.1,454.25,529,455Z" transform="translate(-10.86 -33.67)"/><path class="cls-37" d="M529.9,455.55c-13.91,10.5-18.26,34-9.1,49,12.08,19.79,40.13,19.2,54.67,2.76,9.94-11.21,11.88-30.94,4.19-44-9.26-15.68-32.13-18.85-46.51-10C532,454,531,454.78,529.9,455.55Z" transform="translate(-10.86 -33.67)"/><path class="cls-35" d="M530.21,468.24l2.06-3.06,3.06,2.61a20.77,20.77,0,0,1,4.95-4.4,22,22,0,0,1,3.81-2l3.65,3.1c-1.18.38-2.22.76-3.11,1.14a17.1,17.1,0,0,0-2.35,1.19,21.74,21.74,0,0,0-4.13,3.38l11.45,9.73q2-2,3.61-3.34a13,13,0,0,1,2.92-1.93q4.75-2.25,9,1.35a12.4,12.4,0,0,1,4.28,8.53,16,16,0,0,1-.3,5,29.06,29.06,0,0,1-1.8,5.41l3.27,2.78-2.06,3.06-3-2.53a18.35,18.35,0,0,1-4,4.37,20,20,0,0,1-3.06,2,40.93,40.93,0,0,1-4,1.84l-3.69-3.14a26.52,26.52,0,0,0,8.41-3.75,14.51,14.51,0,0,0,3.53-3.67l-12.72-10.8a46.22,46.22,0,0,1-3.42,3.31,18,18,0,0,1-2.83,2,7.69,7.69,0,0,1-9.22-1,11,11,0,0,1-4-8,20.73,20.73,0,0,1,2.68-10.62ZM547,482.55l-10.95-9.31q-2.24,4.47-1.57,8a7.28,7.28,0,0,0,2.34,4.36,4.72,4.72,0,0,0,5.39.73,11.36,11.36,0,0,0,2.14-1.37A27.74,27.74,0,0,0,547,482.55Zm5.59-.07,12,10.2a14,14,0,0,0,1-8.2,7.86,7.86,0,0,0-2.54-4.46,5.1,5.1,0,0,0-5.9-.86A17.72,17.72,0,0,0,552.62,482.48Z" transform="translate(-10.86 -33.67)"/><path class="cls-38" d="M982,589.86c-16.6-18.07-47.3-18.86-64-1.69-22.1,22.67-14.6,64.08,9.7,81.59,16.6,12,41.9,10.1,56.5-4.38,17.5-17.5,16-52.07,1.4-71.26C984.41,592.66,983.21,591.2,982,589.86Z" transform="translate(-10.86 -33.67)"/><path class="cls-34" d="M981.05,590.88c-15.85-17.24-45.15-18-61.09-1.6-21.1,21.64-13.94,61.17,9.26,77.88,15.84,11.46,40,9.64,53.93-4.18,16.71-16.71,15.27-49.7,1.34-68C983.34,593.56,982.2,592.17,981.05,590.88Z" transform="translate(-10.86 -33.67)"/><path class="cls-35" d="M977.24,605.57l2.37,4.68-4.68,3a35,35,0,0,1,2.3,9.59,41,41,0,0,1,.22,6.63L971.86,633q.33-2.88.42-5.13a33.36,33.36,0,0,0-.06-4.06,38.21,38.21,0,0,0-1.6-7.85l-17.53,11.18c.79,2.67,1.41,5,1.84,7.07a22.68,22.68,0,0,1,.6,5.29q0,8.13-6.53,12.27a13.52,13.52,0,0,1-12.16,1.47,16.93,16.93,0,0,1-5.63-3.23,35,35,0,0,1-5.21-5.59l-5,3.19L918.62,643l4.56-2.91a29.05,29.05,0,0,1-2.81-8.22,36.5,36.5,0,0,1-.59-5.53c-.07-2,0-4.29.08-6.72l5.65-3.61a49.25,49.25,0,0,0-.35,14.24,23.28,23.28,0,0,0,2.26,7.14l19.45-12.41c-.83-2.52-1.46-4.79-1.91-6.79a30.91,30.91,0,0,1-.78-5.22q-.21-8.64,6.28-12.78a12,12,0,0,1,11.38-1.34q5.73,2.25,10.71,9.75ZM951.49,622l16.76-10.69q-3.9-5.7-8.32-6.7a8,8,0,0,0-6.3,1c-2.49,1.58-3.76,4-3.82,7.39a19.94,19.94,0,0,0,.38,3.86A47,47,0,0,0,951.49,622Zm-3,8.13-18.36,11.71q4.3,5.16,8.88,6a8.74,8.74,0,0,0,6.53-1.2,8.94,8.94,0,0,0,4.24-8.05A30.7,30.7,0,0,0,948.47,630.12Z" transform="translate(-10.86 -33.67)"/></g><g id="Layer_2" data-name="Layer 2"><path class="cls-39" d="M825.33,887.84,669.25,900.39,500.09,887.84c-1.38,0-2.48-1.77-2.48-4V836.5c0-2.22,1.1-4,2.48-4,0,0,89.06-1.61,172.43-1.61s152.81,1.61,152.81,1.61c1.38,0,2.48,1.77,2.48,4v47.36C827.53,886.07,826.71,887.84,825.33,887.84Z" transform="translate(-10.86 -33.67)"/><path id="path3971" class="cls-16" d="M715.24,833c-4,22.81,15.49,46.27,43.46,52.41s53.85-7.37,57.81-30.18S801,809,773.05,802.81,719.2,810.18,715.24,833Z" transform="translate(-10.86 -33.67)"/><path id="path3193" class="cls-17" d="M717.93,835.85c-3.7,21.28,14.09,43.08,39.74,48.7s49.44-7.07,53.14-28.34-14.09-43.08-39.74-48.7-49.44,7.07-53.14,28.34Z" transform="translate(-10.86 -33.67)"/><path id="path3969" class="cls-18" d="M720.5,836.42c30.38-25.4,75,12.47,87.73,19.22C789,861.47,743.31,820.37,720.5,836.42Z" transform="translate(-10.86 -33.67)"/><path id="path3963" class="cls-19" d="M720.5,836.42c29.72-7.92,57.48,29.35,87.73,19.22C785.71,878.08,748.79,842.58,720.5,836.42Z" transform="translate(-10.86 -33.67)"/><path id="path3808-6" class="cls-20" d="M714.59,835.12c-4,22.81,15.1,46.18,42.59,52.2s53-7.57,57-30.38-15.1-46.18-42.59-52.2-53,7.58-57,30.38Zm5.91,1.3c29.57-15.17,58.36,18,87.73,19.22-22.11,17.23-58.9-19.89-87.73-19.22Z" transform="translate(-10.86 -33.67)"/><path id="path3965" class="cls-21" d="M717.47,847.63c26.19,23.65,63.33,43.48,95,14.55C788.21,902.76,726.93,887.85,717.47,847.63Z" transform="translate(-10.86 -33.67)"/><path id="path3967" class="cls-22" d="M812.06,841c-9.26-28.41-47.64-43.39-73-32.35C769.9,804.51,803,821.69,812.06,841Z" transform="translate(-10.86 -33.67)"/><ellipse class="cls-40" cx="768.78" cy="866.23" rx="6.48" ry="7.3" transform="translate(-67.26 19.88) rotate(-3.85)"/><ellipse class="cls-40" cx="678.28" cy="834.32" rx="6.48" ry="7.3" transform="translate(-65.32 13.73) rotate(-3.85)"/><ellipse class="cls-40" cx="556.65" cy="823" rx="6.48" ry="7.3" transform="translate(-64.83 5.55) rotate(-3.85)"/><ellipse class="cls-40" cx="555.4" cy="870.46" rx="6.48" ry="7.3" transform="translate(-68.02 5.57) rotate(-3.85)"/><ellipse class="cls-40" cx="614.36" cy="901.3" rx="6.48" ry="7.3" transform="translate(-69.96 9.59) rotate(-3.85)"/><ellipse class="cls-40" cx="673.42" cy="892.16" rx="6.48" ry="7.3" transform="matrix(1, -0.07, 0.07, 1, -69.21, 13.54)"/><path class="cls-41" d="M774.42,1037.18s-43.87,20.06-103.54,21-117.6-21-117.6-21L525.15,887.84H800.27Z" transform="translate(-10.86 -33.67)"/><path id="path3973-4" data-name="path3973" class="cls-16" d="M629.07,827.83c-2.93,16.88,11.47,34.24,32.16,38.78s39.83-5.45,42.77-22.32-11.46-34.23-32.15-38.78S632,811,629.07,827.83Z" transform="translate(-10.86 -33.67)"/><path id="path3975-3" data-name="path3975" class="cls-17" d="M631.07,830c-2.74,15.74,10.41,31.87,29.39,36s36.58-5.22,39.32-21-10.42-31.87-29.4-36S633.81,814.21,631.07,830Z" transform="translate(-10.86 -33.67)"/><path id="path3977-4" data-name="path3977" class="cls-18" d="M633,830.37c22.47-18.79,55.46,9.24,64.9,14.23-14.25,4.31-48-26.1-64.9-14.23Z" transform="translate(-10.86 -33.67)"/><path id="path3979-4" data-name="path3979" class="cls-19" d="M633,830.37c22-5.85,42.52,21.72,64.9,14.23-16.66,16.59-44-9.67-64.9-14.23Z" transform="translate(-10.86 -33.67)"/><path id="path3981-4" data-name="path3981" class="cls-20" d="M628.6,829.41c-2.94,16.87,11.16,34.16,31.5,38.62s39.21-5.6,42.15-22.47-11.17-34.16-31.51-38.62-39.21,5.6-42.14,22.47Zm4.37,1c21.87-11.22,43.17,13.33,64.9,14.23-16.36,12.74-43.58-14.72-64.9-14.23Z" transform="translate(-10.86 -33.67)"/><path id="path3983-4" data-name="path3983" class="cls-21" d="M630.72,838.66c19.38,17.5,46.85,32.18,70.26,10.77C683.05,879.45,637.72,868.42,630.72,838.66Z" transform="translate(-10.86 -33.67)"/><path id="path3985-4" data-name="path3985" class="cls-22" d="M700.7,833.73c-6.85-21-35.24-32.1-54-23.94C669.51,806.77,694,819.48,700.7,833.73Z" transform="translate(-10.86 -33.67)"/><path id="path3973-5" data-name="path3973" class="cls-16" d="M510.87,855.51c5,16.23,25.27,23.1,45.18,15.33s32-27.23,26.94-43.46-25.27-23.1-45.18-15.33-32,27.22-26.94,43.46Z" transform="translate(-10.86 -33.67)"/><path id="path3975-4" data-name="path3975" class="cls-17" d="M513.54,856.21c4.7,15.15,23.31,21.65,41.57,14.52s29.25-25.19,24.56-40.34-23.31-21.64-41.57-14.51S508.85,841.06,513.54,856.21Z" transform="translate(-10.86 -33.67)"/><path id="path3977-5" data-name="path3977" class="cls-18" d="M515.38,855.5c11-28.94,52-23.37,62.45-24.39-10.38,11.78-53.2,4.6-62.45,24.39Z" transform="translate(-10.86 -33.67)"/><path id="path3979-5" data-name="path3979" class="cls-19" d="M515.38,855.5c16.37-17.49,46.47-5.27,62.45-24.39-7,23.75-42.32,16.5-62.45,24.39Z" transform="translate(-10.86 -33.67)"/><path id="path3981-5" data-name="path3981" class="cls-20" d="M511.17,857.14c5,16.23,25,23.2,44.55,15.56s31.36-27,26.32-43.23-25-23.21-44.55-15.56-31.35,27-26.32,43.23Zm4.21-1.64c13.86-22.06,43.28-12.88,62.45-24.39-8.42,20.26-44.25,11.91-62.45,24.39Z" transform="translate(-10.86 -33.67)"/><path id="path3983-5" data-name="path3983" class="cls-21" d="M517.16,863.93c24.59,4.17,54.91,1.32,65.53-30.4C580.67,869.59,536.55,885.68,517.16,863.93Z" transform="translate(-10.86 -33.67)"/><path id="path3985-5" data-name="path3985" class="cls-22" d="M575.4,820.12C560.05,805.83,530.55,812.3,518,830,536.36,814.45,563.21,811.6,575.4,820.12Z" transform="translate(-10.86 -33.67)"/><path class="cls-39" d="M825.33,887.84,669.25,900.39,500.09,887.84c-1.38,0-2.48-1.77-2.48-4V836.5c0-2.22,1.1-4,2.48-4,0,0,85.79,12.84,169.16,12.84a1008.57,1008.57,0,0,0,156.08-12.84c1.38,0,2.48,1.77,2.48,4v47.36C827.53,886.07,826.71,887.84,825.33,887.84Z" transform="translate(-10.86 -33.67)"/><path class="cls-42" d="M825.33,894.26s-116,11.63-156.08,12.55-169.16-12.55-169.16-12.55c-1.38,0-2.48-1.77-2.48-4V842.92c0-2.22,1.1-4,2.48-4,0,0,125.84,12.84,169.16,12.84s156.08-12.84,156.08-12.84c1.38,0,2.48,1.77,2.48,4v47.36C827.53,892.49,826.71,894.26,825.33,894.26Z" transform="translate(-10.86 -33.67)"/></g><g id="Layer_11" data-name="Layer 11"><polygon class="cls-43" points="272.64 319.63 321.17 333.82 296.2 362.28 272.64 319.63"/><path class="cls-44" d="M518.56,567.42l2.67,77.51a40.29,40.29,0,0,1-7-2,39.79,39.79,0,0,1,4.36-75.49Z" transform="translate(-10.86 -33.67)"/><path class="cls-45" d="M347.57,391.19c-2.13-2-8.61-5.58-17.86-5.13-11.37.55-23,7.17-33.67,19.14-29.19,32.76-35.62,46.18-32.77,68.4a209.43,209.43,0,0,0,3.84,21.11,100.62,100.62,0,0,1,1.9,10.05l88.77-83C354.6,407.12,350.27,393.9,347.57,391.19Z" transform="translate(-10.86 -33.67)"/><path class="cls-44" d="M491.86,601.6l-101.4,2.53,75.79-94.35L374.53,406.07l-.1.09c2.2,8.25,3.74,16.21,4.63,21.25l.94,5.41L261,539.36l-2.06.64a10.71,10.71,0,0,1-7.07-.28,10.89,10.89,0,0,1-4-2.7c-2.55-2.75-3.27-6.11-3-9.68l-16.06,15L339.44,671.56,491.3,622.62Z" transform="translate(-10.86 -33.67)"/><path class="cls-44" d="M269.11,505.53l89.45-80.07c-.25-1.25-.51-2.49-.78-3.73l-88.77,83C269,505,269.08,505.27,269.11,505.53Z" transform="translate(-10.86 -33.67)"/><path class="cls-44" d="M247.88,537a10.89,10.89,0,0,0,4,2.7,10.71,10.71,0,0,0,7.07.28l2.06-.64L380,432.82l-.94-5.41c-.89-5-2.43-13-4.63-21.25l-16.65,15.57c.27,1.24.53,2.48.78,3.73l-89.45,80.07c0-.26-.07-.51-.1-.77l-24.15,22.58C244.61,530.91,245.33,534.27,247.88,537Z" transform="translate(-10.86 -33.67)"/><path class="cls-46" d="M267.11,494.71a209.43,209.43,0,0,1-3.84-21.11c-2.85-22.22,3.58-35.64,32.77-68.4,10.66-12,22.3-18.59,33.67-19.14,9.25-.45,15.73,3.16,17.86,5.13,2.7,2.71,7,15.93,10.21,30.54,0,0,8.15-1.09,11.51-3.83s5.14-11.74,5.14-11.74C371.29,394.4,366.81,382,361,376.67s-17.52-11.09-32.25-10.37c-11.71.56-29.45,5.49-47.49,25.74-29.25,32.84-41.62,52.78-37.61,84.08a228.69,228.69,0,0,0,4.16,22.93c2,9,2.37,11.06.35,16.2-1.55,3.93-3,8.14-3.3,12.09,0,0,12-.8,17.7-6.59s6.45-16,6.45-16A100.62,100.62,0,0,0,267.11,494.71Z" transform="translate(-10.86 -33.67)"/><path class="cls-47" d="M523.75,656a6.58,6.58,0,0,1-4.65-6.2l-1.35-88.06a6.59,6.59,0,1,1,13.18-.2l1.35,88.05a6.59,6.59,0,0,1-8.53,6.41Z" transform="translate(-10.86 -33.67)"/><path class="cls-47" d="M469.85,515.06a6.38,6.38,0,0,0,6.5-1.08A6.32,6.32,0,0,0,477,505L381.79,395.22a6.43,6.43,0,0,0-9-.7,6.31,6.31,0,0,0-.64,8.94l95.2,109.83A6.48,6.48,0,0,0,469.85,515.06Z" transform="translate(-10.86 -33.67)"/><line class="cls-44" x1="213.51" y1="511.78" x2="324.38" y2="642.03"/><path class="cls-47" d="M333,681.47a6.21,6.21,0,0,0,7-9.8L229.09,541.43a6.21,6.21,0,1,0-9.45,8.05L330.51,679.72A6.17,6.17,0,0,0,333,681.47Z" transform="translate(-10.86 -33.67)"/><path class="cls-48" d="M310.34,386.48c-7.23-9.05-16.47-32-31.77-37.79s-74.44-17.83-74.44-17.83L162.68,400s43.49,19.61,49.67,25.58c5.45,5.26,15.41,17.34,23.72,23.65,2.28,4.43,25.18,30.07,30.48,29.84,7.27-.3,11.08-1.08,10.77-8.35a13.13,13.13,0,0,0-1.69-5.92l1.45-3a13.69,13.69,0,0,0,3.15.26,13.16,13.16,0,0,0,7.94-23.22l.93-1.94a13,13,0,0,0,4.06.47,13.17,13.17,0,0,0,7.08-23.89c.37-.78.74-1.55,1.1-2.32a13,13,0,0,0,5.68,1,13.17,13.17,0,0,0,3.32-25.74Z" transform="translate(-10.86 -33.67)"/><polygon class="cls-41" points="203.7 283.99 0 115.18 8.87 297 151.56 383.28 203.7 283.99"/></g><g id="Layer_4" data-name="Layer 4"><ellipse class="cls-40" cx="571.87" cy="741.32" rx="6.48" ry="7.3" transform="translate(-59.32 6.38) rotate(-3.85)"/><ellipse class="cls-40" cx="656.87" cy="630.99" rx="6.48" ry="7.3" transform="translate(-51.72 11.84) rotate(-3.85)"/><ellipse class="cls-40" cx="562.07" cy="794.45" rx="6.48" ry="7.3" transform="translate(-62.91 5.84) rotate(-3.85)"/><ellipse class="cls-40" cx="642.98" cy="680.03" rx="6.48" ry="7.3" transform="matrix(1, -0.07, 0.07, 1, -55.05, 11.02)"/><ellipse class="cls-40" cx="651.97" cy="585.22" rx="6.48" ry="7.3" transform="translate(-48.66 11.41) rotate(-3.85)"/><ellipse class="cls-40" cx="537.56" cy="588.8" rx="6.48" ry="7.3" transform="translate(-49.16 3.74) rotate(-3.85)"/><ellipse class="cls-40" cx="523.88" cy="661.16" rx="6.48" ry="7.3" transform="translate(-54.05 2.98) rotate(-3.85)"/><ellipse class="cls-40" cx="558.02" cy="627.22" rx="6.48" ry="7.3" transform="translate(-51.69 5.2) rotate(-3.85)"/><ellipse class="cls-40" cx="591.33" cy="581.08" rx="6.48" ry="7.3" transform="translate(-48.52 7.33) rotate(-3.85)"/><ellipse class="cls-40" cx="617.59" cy="626.24" rx="6.48" ry="7.3" transform="translate(-51.49 9.19) rotate(-3.85)"/><ellipse class="cls-40" cx="578.11" cy="679.72" rx="6.48" ry="7.3" transform="translate(-55.17 6.66) rotate(-3.85)"/><ellipse class="cls-40" cx="591.34" cy="719.57" rx="6.48" ry="7.3" transform="translate(-57.82 7.64) rotate(-3.85)"/><ellipse class="cls-40" cx="708.37" cy="797.88" rx="6.48" ry="7.3" transform="matrix(1, -0.07, 0.07, 1, -62.81, 15.67)"/><ellipse class="cls-40" cx="773.65" cy="800.38" rx="6.48" ry="7.3" transform="translate(-62.83 20.06) rotate(-3.85)"/><ellipse class="cls-40" cx="528.88" cy="712.72" rx="6.48" ry="7.3" transform="translate(-57.5 3.43) rotate(-3.85)"/><ellipse class="cls-40" cx="532.94" cy="763.57" rx="6.48" ry="7.3" transform="translate(-60.9 3.82) rotate(-3.85)"/><ellipse class="cls-40" cx="595.97" cy="788.33" rx="6.48" ry="7.3" transform="translate(-62.42 8.11) rotate(-3.85)"/><ellipse class="cls-40" cx="649" cy="722.83" rx="6.48" ry="7.3" transform="translate(-57.9 11.52) rotate(-3.85)"/><ellipse class="cls-40" cx="627.65" cy="756.19" rx="6.48" ry="7.3" transform="translate(-60.19 10.16) rotate(-3.85)"/><ellipse class="cls-40" cx="661.24" cy="754.96" rx="6.48" ry="7.3" transform="translate(-60.03 12.41) rotate(-3.85)"/><ellipse class="cls-40" cx="703.39" cy="750.51" rx="6.48" ry="7.3" transform="translate(-59.64 15.23) rotate(-3.85)"/><ellipse class="cls-40" cx="680.07" cy="784.18" rx="6.48" ry="7.3" transform="translate(-61.95 13.74) rotate(-3.85)"/><ellipse class="cls-40" cx="641.52" cy="792.9" rx="6.48" ry="7.3" transform="translate(-62.62 11.17) rotate(-3.85)"/><ellipse class="cls-40" cx="624" cy="598.93" rx="6.48" ry="7.3" transform="translate(-49.65 9.56) rotate(-3.85)"/><ellipse class="cls-40" cx="590.92" cy="646.39" rx="6.48" ry="7.3" transform="translate(-52.9 7.45) rotate(-3.85)"/><ellipse class="cls-40" cx="618.18" cy="658.64" rx="6.48" ry="7.3" transform="matrix(1, -0.07, 0.07, 1, -53.67, 9.3)"/><ellipse class="cls-40" cx="578.58" cy="608.44" rx="6.48" ry="7.3" transform="matrix(1, -0.07, 0.07, 1, -50.39, 6.53)"/><ellipse class="cls-40" cx="551.98" cy="698.58" rx="6.48" ry="7.3" transform="translate(-56.5 4.95) rotate(-3.85)"/><ellipse class="cls-40" cx="655.4" cy="827.79" rx="6.48" ry="7.3" transform="translate(-64.93 12.18) rotate(-3.85)"/><ellipse class="cls-40" cx="686.64" cy="670.28" rx="6.48" ry="7.3" transform="translate(-54.29 13.92) rotate(-3.85)"/><ellipse class="cls-40" cx="691.89" cy="618.09" rx="6.48" ry="7.3" transform="translate(-50.78 14.16) rotate(-3.85)"/><ellipse class="cls-40" cx="746.62" cy="641.01" rx="6.48" ry="7.3" transform="translate(-52.19 17.88) rotate(-3.85)"/><ellipse class="cls-40" cx="739.56" cy="695.06" rx="6.48" ry="7.3" transform="translate(-55.84 17.53) rotate(-3.85)"/><ellipse class="cls-40" cx="690.41" cy="720.42" rx="6.48" ry="7.3" transform="translate(-57.65 14.29) rotate(-3.85)"/><ellipse class="cls-40" cx="738.5" cy="754.27" rx="6.48" ry="7.3" transform="translate(-59.81 17.59) rotate(-3.85)"/><ellipse class="cls-40" cx="594.65" cy="831.01" rx="6.48" ry="7.3" transform="translate(-65.29 8.11) rotate(-3.85)"/><ellipse class="cls-40" cx="533.77" cy="816.46" rx="6.48" ry="7.3" transform="translate(-64.45 3.99) rotate(-3.85)"/></g></svg>